<svg version="1.1" xmlns="http://www.w3.org/2000/svg" xmlns:xlink="http://www.w3.org/1999/xlink" width="110.63369" height="289.99843" viewBox="0,0,110.63369,289.99843"><g transform="translate(-161.76631,-35.6)"><g data-paper-data="{&quot;isPaintingLayer&quot;:true}" fill-rule="nonzero" stroke="none" stroke-width="1" stroke-linecap="butt" stroke-linejoin="miter" stroke-miterlimit="10" stroke-dasharray="" stroke-dashoffset="0" style="mix-blend-mode: normal"><g data-paper-data="{&quot;index&quot;:null}" id="Group"><g id="Shape"><path d="M176.76631,219c-2.1,2 -3.3,1.3 -3.3,1.3c-2,0.8 -3.7,-0.8 -3.7,-0.8c-2.5,0.8 -3,-1.3 -3,-1.3c-2.1,0 -2.1,-1.1 -1.8,-3c0,-0.1 0,-0.1 0,-0.2c-1.8,0.4 -2.1,-1.2 -0.9,-2.8c1.3,-1.7 2.3,-4.3 2.7,-5.5c0.3,-0.9 0.4,-1.5 0.4,-1.5l11.5,5.4l-1,4c1.6,1.1 0.3,3.3 -0.9,4.4z" fill="#c5886b"/><g><g><path d="M177.16631,214.8c0.2,0 0.4,0 0.6,0.1c1.4,1.1 0.1,3.1 -1,4.2c-2.1,2 -3.3,1.3 -3.3,1.3c-2,0.8 -3.7,-0.8 -3.7,-0.8c-2.5,0.8 -3,-1.3 -3,-1.3c-0.3,0 -0.6,-0.1 -0.8,-0.1c-0.1,-0.5 -0.1,-1 0,-1.3c0,0 1.5,-4.3 2.7,-4.4c0.6,0 1.8,0.3 1.6,1.6c0.2,-0.4 0.7,-0.8 1.6,-0.4c0.3,0.1 1,2.4 -0.7,4.7c0,0 0.6,0.2 1.2,-1c0.6,-1.2 1.1,-3.7 2.4,-3.5c0.5,0.1 1,1.1 0.7,2.7c0.1,-0.6 0.6,-2 1.7,-1.8z" fill="#c5886b"/><path d="M166.26631,218.2c0,0 0.2,0 0.5,-0.1c0.3,-0.1 0.7,-0.3 1.1,-0.7c0.2,-0.2 0.4,-0.4 0.6,-0.7c0.2,-0.3 0.4,-0.6 0.5,-0.9c0.2,-0.3 0.3,-0.7 0.5,-1c0.1,-0.3 0.3,-0.7 0.4,-1c0.1,-0.2 -0.1,-0.5 -0.3,-0.7c-0.2,-0.2 -0.6,-0.3 -0.8,-0.3c-0.3,0 -0.4,0.2 -0.7,0.5c-0.2,0.3 -0.4,0.5 -0.6,0.8c-0.7,1 -1.1,1.6 -1.1,1.6c0,0 0.3,-0.7 0.8,-1.8c0.1,-0.3 0.3,-0.5 0.5,-0.8c0.1,-0.2 0.2,-0.3 0.3,-0.5c0.2,-0.2 0.4,-0.3 0.6,-0.3c0.5,-0.1 0.9,0.1 1.3,0.3c0.4,0.3 0.7,0.8 0.6,1.3c-0.1,0.4 -0.3,0.8 -0.5,1.1c-0.2,0.4 -0.3,0.7 -0.6,1c-0.4,0.6 -0.9,1.2 -1.4,1.6c-0.5,0.4 -1,0.5 -1.4,0.6c-0.1,0 -0.3,0 -0.3,0z" fill="#a95947"/><path d="M170.16631,213.9c0,0 0.1,-0.2 0.3,-0.3c0.2,-0.2 0.6,-0.4 1.2,-0.3c0.3,0.1 0.5,0.3 0.7,0.6c0.2,0.3 0.2,0.6 0.3,0.9c0,0.3 0,0.6 0,0.9c0,0.3 -0.1,0.6 -0.2,0.9c-0.1,0.3 -0.2,0.6 -0.4,0.9c-0.1,0.3 -0.3,0.6 -0.5,0.8c-0.4,0.5 -0.8,0.9 -1.3,1.1c-0.9,0.4 -1.6,0.4 -1.6,0.4v-0.4c0,0 0.1,0 0.4,-0.1c0.2,-0.1 0.6,-0.2 0.9,-0.4c0.4,-0.2 0.7,-0.5 1.1,-1c0.1,-0.2 0.3,-0.5 0.4,-0.7c0.1,-0.3 0.2,-0.5 0.3,-0.8c0.1,-0.3 0.2,-0.6 0.2,-0.9c0,-0.3 0.1,-0.6 0.1,-0.8c0,-0.5 -0.2,-1 -0.5,-1.1c-0.3,-0.2 -0.7,-0.1 -1,0c-0.3,0.2 -0.4,0.3 -0.4,0.3z" fill="#a95947"/><path d="M171.66631,220.4c0,0 0.2,0 0.6,0c0.4,0 1,-0.1 1.5,-0.5c0.2,-0.2 0.5,-0.4 0.7,-0.8c0.2,-0.3 0.3,-0.7 0.4,-1.1c0.2,-0.8 0.4,-1.7 0.4,-2.6c0,-0.4 0,-0.9 -0.2,-1.1c-0.2,-0.2 -0.6,-0.2 -0.9,0c-0.3,0.2 -0.5,0.6 -0.7,0.9c-0.2,0.3 -0.3,0.7 -0.5,1c-0.3,0.6 -0.5,1.2 -0.6,1.6c-0.1,0.4 -0.2,0.6 -0.2,0.6c0,0 0.1,-0.9 0.5,-2.3c0.1,-0.3 0.2,-0.7 0.4,-1.1c0.2,-0.4 0.3,-0.8 0.8,-1.1c0.1,-0.1 0.3,-0.2 0.4,-0.2c0.2,-0.1 0.3,-0.1 0.4,-0.1c0.3,0 0.6,0 0.8,0.3c0.5,0.5 0.4,1.1 0.5,1.5c0,1 -0.3,1.9 -0.5,2.7c-0.1,0.4 -0.3,0.9 -0.5,1.2c-0.2,0.4 -0.5,0.6 -0.9,0.8c-0.7,0.4 -1.3,0.4 -1.7,0.4c-0.5,0 -0.7,-0.1 -0.7,-0.1z" fill="#a95947"/><path d="M175.26631,215.8c0,0 0.1,-0.2 0.4,-0.5c0.3,-0.3 0.6,-0.7 1.2,-0.9c0.3,-0.1 0.6,-0.1 0.9,0c0.1,0.1 0.3,0.1 0.3,0.3c0.1,0.1 0.1,0.2 0.2,0.3c0.1,0.2 0.1,0.3 0.1,0.5c0,0.1 0,0.2 0,0.2c0,0 0,0 -0.1,-0.1c-0.1,-0.1 -0.2,-0.2 -0.3,-0.3c-0.1,-0.1 -0.3,-0.2 -0.4,-0.2c-0.1,0 -0.2,0 -0.2,0c-0.1,0 -0.2,0.1 -0.3,0.1c-0.2,0.1 -0.4,0.2 -0.5,0.3c-0.2,0.1 -0.3,0.3 -0.4,0.4c-0.3,0.2 -0.4,0.4 -0.4,0.4z" fill="#a95947"/></g><g><path d="M164.96631,215.1c-1.8,0.4 -2.1,-1.2 -0.9,-2.8c1.2,-1.6 2,-3.8 2.5,-5.1c0.4,-0.2 0.7,-0.3 0.9,-0.2c1.2,0.3 4.2,-0.7 -0.6,5.8c-0.7,1 -1.1,1.8 -1.9,2.3z" fill="#c5886b"/><path d="M164.26631,215.1c0,0 0.1,0 0.2,-0.1c0.1,-0.1 0.3,-0.2 0.5,-0.4c0.4,-0.3 0.9,-0.8 1.3,-1.4c0.4,-0.5 0.9,-1.1 1.2,-1.5c0.3,-0.4 0.6,-0.7 0.6,-0.7c0,0 -0.1,0.4 -0.3,0.9c-0.2,0.5 -0.6,1.2 -1,1.7c-0.2,0.3 -0.5,0.6 -0.8,0.8c-0.3,0.2 -0.6,0.4 -0.8,0.5c-0.3,0.1 -0.5,0.2 -0.7,0.2c-0.1,0 -0.2,0 -0.2,0z" fill="#a95947"/></g></g></g><g id="Shape"><path d="M197.06631,174.1c-3.7,19.4 -12.9,38.4 -12.9,38.4c0,0 -19.4,-1.1 -22.3,-12c0,0 9.6,-12.4 11.1,-17.2c1.4,-4.7 2.3,-11.5 5.5,-15.8c3.3,-4.3 6.8,-4.4 11.5,-3.5c5.1,1 8.1,5.3 7.1,10.1z" fill="#224363"/><path d="M178.76631,167.2c0,0 -0.2,0.3 -0.4,0.8c-0.3,0.5 -0.6,1.2 -1,2c-0.4,0.9 -0.7,1.9 -1.1,3c-0.4,1.1 -0.7,2.3 -1,3.5c-0.3,1.2 -0.6,2.4 -0.8,3.5c-0.1,0.6 -0.2,1.1 -0.3,1.6c-0.1,0.5 -0.1,1 -0.2,1.5c-0.1,0.9 -0.2,1.7 -0.3,2.2c-0.1,0.5 -0.1,0.9 -0.1,0.9c0,0 0,-0.3 0,-0.9c0,-0.5 0,-1.3 0,-2.3c0.1,-0.9 0.1,-2 0.3,-3.2c0.2,-1.2 0.4,-2.4 0.7,-3.6c0.3,-1.2 0.7,-2.4 1.1,-3.5c0.4,-1.1 0.9,-2.1 1.3,-2.9c0.4,-0.8 0.9,-1.5 1.2,-1.9c0.4,-0.4 0.6,-0.7 0.6,-0.7z" fill="#1a324a"/><path d="M171.06631,187.7c-1.3,2.3 -2.7,4.5 -4.2,6.7c-0.7,1.1 -1.5,2.1 -2.3,3.2c-0.8,1.1 -1.6,2.1 -2.4,3.1l0.1,-0.3c0.1,0.6 0.4,1.1 0.7,1.7c0.3,0.5 0.6,1.1 0.9,1.6c0.3,0.5 0.7,1 1.2,1.4c0.4,0.5 0.9,0.9 1.3,1.3c0.5,0.4 1,0.8 1.5,1.1c0.5,0.4 1.1,0.7 1.6,0.9c0.5,0.3 1.1,0.5 1.7,0.8c0.3,0.1 0.6,0.2 0.9,0.3l0.9,0.3c-0.6,-0.2 -1.2,-0.3 -1.8,-0.5c-0.6,-0.2 -1.2,-0.4 -1.8,-0.7c-0.6,-0.3 -1.1,-0.5 -1.7,-0.9c-0.6,-0.3 -1.1,-0.7 -1.6,-1.1l-0.7,-0.6c-0.2,-0.2 -0.5,-0.4 -0.7,-0.7c-0.4,-0.5 -0.9,-1 -1.2,-1.5c-0.4,-0.5 -0.7,-1.1 -1,-1.6c-0.3,-0.6 -0.5,-1.2 -0.7,-1.8v-0.1l0.1,-0.1c0.8,-1 1.6,-2 2.4,-3.1l2.4,-3.1c1.4,-2 2.9,-4.2 4.4,-6.3z" fill="#1a324a"/><path d="M195.86631,179.4c0,0 0,0.5 -0.2,1.5c-0.2,1 -0.4,2.3 -0.8,3.9c-0.4,1.6 -0.9,3.5 -1.5,5.4c-0.6,2 -1.3,4.1 -2.1,6.1c-0.8,2.1 -1.6,4.1 -2.4,6c-0.8,1.9 -1.6,3.7 -2.3,5.2c-0.7,1.5 -1.3,2.7 -1.7,3.6c-0.4,0.9 -0.7,1.4 -0.7,1.4c0,0 0.8,-2 2.1,-5.1c0.6,-1.5 1.3,-3.3 2.1,-5.2c0.8,-1.9 1.6,-4 2.3,-6c0.8,-2.1 1.5,-4.1 2.2,-6.1c0.6,-2 1.2,-3.8 1.7,-5.4c0.5,-1.6 0.8,-2.9 1,-3.8c0.2,-1 0.3,-1.5 0.3,-1.5z" fill="#1a324a"/></g><g id="Shape"><path d="M187.96631,172c-5.1,-0.9 -8.3,-3 -8.9,-4.2c-0.6,-1.2 -1.4,-1.9 -0.2,-5.7c1.2,-3.8 1.3,-2.4 1.5,-7.9c0.2,-5.5 -0.6,-20.5 1.8,-28.4c3.1,-10.2 12.6,-10.6 17.3,-5.6c4.4,4.6 2.1,43.3 -1.5,49.6c-2,3.4 -4.9,3 -10,2.2z" fill="#224363"/><path d="M194.76631,172.3c0,0 0.1,0 0.3,0c0.2,0 0.5,-0.1 0.9,-0.3c0.2,-0.1 0.4,-0.2 0.5,-0.4c0.2,-0.2 0.4,-0.3 0.5,-0.6c0.4,-0.4 0.7,-1 1,-1.6c0.3,-0.7 0.6,-1.4 0.8,-2.1c0.3,-0.8 0.5,-1.6 0.7,-2.5c0.2,-0.9 0.4,-1.8 0.5,-2.7c0.2,-0.9 0.3,-1.9 0.4,-2.8c0.2,-0.9 0.3,-1.9 0.3,-2.8c0.1,-0.9 0.2,-1.9 0.3,-2.8c0.1,-0.9 0.1,-1.8 0.2,-2.6c0.1,-0.8 0.1,-1.6 0.2,-2.3c0.1,-2.9 0.3,-4.8 0.3,-4.8c0,0 0.1,1.9 0.1,4.8c0,0.7 0,1.5 -0.1,2.3c0,0.8 -0.1,1.7 -0.1,2.6c-0.1,0.9 -0.1,1.8 -0.2,2.8c-0.1,0.9 -0.2,1.9 -0.3,2.9c-0.1,1 -0.3,1.9 -0.5,2.8c-0.2,0.9 -0.3,1.9 -0.6,2.7c-0.2,0.9 -0.5,1.7 -0.8,2.5c-0.3,0.8 -0.6,1.5 -0.9,2.2c-0.4,0.6 -0.7,1.2 -1.1,1.6c-0.2,0.2 -0.4,0.4 -0.6,0.6c-0.2,0.2 -0.4,0.3 -0.6,0.4c-0.4,0.2 -0.7,0.2 -0.9,0.3c-0.2,-0.2 -0.3,-0.2 -0.3,-0.2z" fill="#1a324a"/><path d="M180.36631,150c0,0 0.2,1.3 0.2,3.3c0,1 0,2.2 -0.1,3.4c0,0.6 -0.1,1.3 -0.2,1.9c-0.1,0.6 -0.3,1.4 -0.6,2c-0.6,1.1 -0.9,2.4 -1,3.6c-0.1,1.2 0,2.3 0.5,3.2c0.4,0.9 1,1.4 1.5,1.7c0.5,0.3 0.8,0.4 0.8,0.4c0,0 -0.1,0 -0.2,-0.1c-0.2,0 -0.4,-0.1 -0.6,-0.2c-0.5,-0.3 -1.3,-0.7 -1.8,-1.7c-0.5,-0.9 -0.8,-2.1 -0.7,-3.4c0.1,-1.3 0.4,-2.6 1,-3.9c0.3,-0.5 0.5,-1.1 0.6,-1.8c0.1,-0.6 0.2,-1.3 0.3,-1.9c0.1,-1.2 0.2,-2.4 0.3,-3.4c0,-1.8 0,-3.1 0,-3.1z" fill="#1a324a"/></g></g><g data-paper-data="{&quot;index&quot;:null}" id="Group"><g id="Shape"><path d="M233.86631,318.6c-3.5,6.1 -21.5,7.9 -25.5,6.6c-3.5,-1.2 -1.8,-5.7 1.2,-7.1c3,-1.4 8.2,-6.9 8.2,-6.9c8.8,-7.5 19.5,1.2 16.1,7.4z" fill="#382a1e"/><path d="M233.96631,316.8c-3.5,6.1 -21.4,7.3 -25.5,6.6c-4.1,-0.8 -1,-5.7 2,-7.1c3,-1.4 7.3,-6.9 7.3,-6.9c8.9,-7.5 19.6,1.2 16.2,7.4z" fill="#4d3a29"/><path d="M213.46631,314.6c0,0 0.1,-0.1 0.2,-0.1c0.1,0 0.4,-0.1 0.6,0c0.5,0.1 1.1,0.5 1.6,1c0.5,0.5 0.8,1 1.1,1.5c0.2,0.4 0.3,0.8 0.3,0.8c0,0 -0.3,-0.2 -0.6,-0.5c-0.4,-0.3 -0.8,-0.8 -1.2,-1.2c-0.2,-0.2 -0.4,-0.4 -0.7,-0.6c-0.2,-0.2 -0.4,-0.4 -0.6,-0.5c-0.4,-0.4 -0.7,-0.4 -0.7,-0.4z" fill="#382a1e"/><path d="M215.46631,312.6c0,0 0.1,-0.1 0.2,-0.1c0.1,0 0.4,-0.1 0.6,0c0.5,0.1 1.1,0.5 1.6,1c0.5,0.5 0.8,1 1.1,1.5c0.2,0.4 0.3,0.8 0.3,0.8c0,0 -0.3,-0.2 -0.6,-0.5c-0.4,-0.3 -0.8,-0.8 -1.2,-1.2c-0.2,-0.2 -0.4,-0.4 -0.7,-0.6c-0.2,-0.2 -0.4,-0.4 -0.6,-0.5c-0.3,-0.5 -0.7,-0.4 -0.7,-0.4z" fill="#382a1e"/></g><g id="Shape"><g><path d="M207.46631,315.4c-3.5,6.1 -21.5,7.9 -25.5,6.6c-3.5,-1.2 -1.8,-5.7 1.2,-7.1c3,-1.4 8.2,-6.9 8.2,-6.9c8.9,-7.4 19.6,1.3 16.1,7.4z" fill="#382a1e"/><path d="M207.66631,313.6c-3.5,6.1 -21.4,7.3 -25.5,6.6c-4.1,-0.8 -1,-5.7 2,-7.1c3,-1.4 7.3,-6.9 7.3,-6.9c8.8,-7.4 19.6,1.2 16.2,7.4z" fill="#4d3a29"/><path d="M187.16631,311.5c0,0 0.1,-0.1 0.2,-0.1c0.1,0 0.4,-0.1 0.6,0c0.5,0.1 1.1,0.5 1.6,1c0.5,0.5 0.8,1 1.1,1.5c0.2,0.4 0.3,0.8 0.3,0.8c0,0 -0.3,-0.2 -0.6,-0.5c-0.4,-0.3 -0.8,-0.8 -1.2,-1.2c-0.2,-0.2 -0.4,-0.4 -0.7,-0.6c-0.2,-0.2 -0.4,-0.4 -0.6,-0.5c-0.4,-0.5 -0.7,-0.4 -0.7,-0.4z" fill="#382a1e"/><path d="M189.16631,309.4c0,0 0.1,-0.1 0.2,-0.1c0.1,0 0.4,-0.1 0.6,0c0.5,0.1 1.1,0.5 1.6,1c0.5,0.5 0.8,1 1.1,1.5c0.2,0.4 0.3,0.8 0.3,0.8c0,0 -0.3,-0.2 -0.6,-0.5c-0.4,-0.3 -0.8,-0.8 -1.2,-1.2c-0.2,-0.2 -0.4,-0.4 -0.7,-0.6c-0.2,-0.2 -0.4,-0.4 -0.6,-0.5c-0.3,-0.4 -0.7,-0.4 -0.7,-0.4z" fill="#382a1e"/></g><path d="M192.96631,289.9l16,-2.6l-0.9,22.7c-7.6,1.9 -13.6,-0.9 -13.6,-0.9z" fill="#382a1e"/></g><g id="Shape"><g><path d="M213.76631,316.3l-2.2,-11.2l-15.6,-3.6l-0.4,14.2l-10.1,-2.1l-5.5,-7.9l8.6,-15.6l22.9,1.7l12.5,15.2z" fill="#1c3752"/><path d="M232.86631,175c9.9,6.3 23.9,84.2 25.5,103.8c1.6,19.6 13.4,30.4 13.4,30.4c0,0 4.7,7.7 -11.5,10.5c-8.1,1.4 -10.4,-2.9 -26.1,-0.8c-15.7,2.1 -24.2,-1.1 -18.7,-4.8c5.5,-3.6 -23.2,-12.1 -30.4,-7.3c-7.2,4.8 17.6,8.6 8.3,10c-23,3.4 -25.5,-9.3 -25.5,-9.3c6.4,-9.3 10.8,-72.1 11.3,-97.6c0.5,-25.5 6.2,-34.3 6.2,-34.3c11.9,-13.7 36.3,-7.8 47.5,-0.6z" fill="#264a6e"/><path d="M183.96631,308.3c0,0 0.3,-1.2 0.7,-3.4c0.5,-2.1 1,-5.2 1.8,-8.9c0.7,-3.7 1.5,-8 2.2,-12.6c0.8,-4.6 1.5,-9.6 2.2,-14.5c0.3,-2.5 0.7,-5 0.9,-7.4c0.3,-2.4 0.6,-4.8 0.8,-7.2c0.2,-2.3 0.5,-4.6 0.6,-6.7c0.1,-2.1 0.3,-4.2 0.4,-6c0.1,-1.9 0.2,-3.6 0.2,-5.1c0.1,-1.5 0,-2.8 0.1,-3.9c0,-2.2 0,-3.4 0,-3.4c0,0 0,1.3 0.1,3.4c0,1.1 0.1,2.4 0.1,3.9c0,1.5 -0.1,3.2 -0.1,5.1c0,1.9 -0.2,3.9 -0.3,6.1c-0.1,2.2 -0.3,4.4 -0.5,6.7c-0.2,2.3 -0.5,4.7 -0.7,7.2c-0.2,2.5 -0.6,4.9 -0.9,7.4c-0.7,5 -1.5,9.9 -2.3,14.5c-0.8,4.6 -1.7,8.9 -2.4,12.6c-0.8,3.7 -1.5,6.7 -2,8.8c-0.6,2.1 -0.9,3.4 -0.9,3.4z" fill="#1a324a"/><path d="M216.26631,312.8c0,0 -0.4,-2.8 -0.8,-6.9c-0.2,-2.1 -0.5,-4.5 -0.7,-7.1c-0.2,-2.6 -0.4,-5.4 -0.6,-8.2c-0.2,-2.8 -0.3,-5.6 -0.4,-8.2c-0.1,-2.6 -0.1,-5 -0.1,-7.1c0,-1 0,-2 0,-2.9c0,-0.8 0,-1.6 0.1,-2.2c0.1,-1.2 0.1,-1.9 0.1,-1.9c0,0 0,0.7 0,1.9c0,0.6 0,1.3 0,2.2c0,0.8 0.1,1.8 0.1,2.8c0.1,2.1 0.2,4.5 0.3,7.1c0.1,2.6 0.3,5.4 0.5,8.2c0.2,2.8 0.3,5.6 0.5,8.2c0.2,2.6 0.3,5 0.5,7.1c0.3,4.2 0.5,7 0.5,7z" fill="#1a324a"/><path d="M230.86631,183.8c0,0 0.1,0.1 0.3,0.3c0.2,0.2 0.5,0.6 0.8,1c0.3,0.5 0.6,1.1 1,1.8c0.2,0.4 0.3,0.7 0.5,1.1c0.2,0.4 0.3,0.8 0.5,1.3c0.4,0.9 0.7,1.9 1,3c0.3,1.1 0.7,2.2 1,3.4c0.3,1.2 0.6,2.4 0.9,3.6c0.3,1.2 0.6,2.5 0.8,3.8c0.5,2.5 0.9,5.1 1.2,7.5c0.2,1.2 0.3,2.4 0.5,3.5c0.1,1.1 0.3,2.1 0.4,3.1c0.4,3.8 0.6,6.4 0.6,6.4c0,0 -0.4,-2.5 -0.9,-6.4c-0.3,-1.9 -0.6,-4.1 -1,-6.5c-0.2,-1.2 -0.4,-2.4 -0.6,-3.7c-0.2,-1.2 -0.5,-2.5 -0.7,-3.8c-0.2,-1.3 -0.5,-2.5 -0.7,-3.8c-0.2,-1.2 -0.6,-2.4 -0.8,-3.6c-0.3,-1.2 -0.6,-2.3 -0.9,-3.4c-0.3,-1.1 -0.6,-2.1 -0.9,-3c-0.3,-0.9 -0.6,-1.7 -0.9,-2.5c-0.3,-0.7 -0.6,-1.3 -0.9,-1.8c-0.3,-0.5 -0.5,-0.9 -0.7,-1.1c-0.3,-0.1 -0.5,-0.2 -0.5,-0.2z" fill="#1a324a"/><path d="M202.46631,183.8c0,0 -0.4,0.4 -0.9,1.2c-0.5,0.8 -1.2,2 -1.9,3.6c-0.4,0.8 -0.7,1.6 -1,2.5c-0.3,0.9 -0.6,1.9 -0.9,2.9c-0.3,1 -0.6,2 -0.8,3.1c-0.1,0.5 -0.2,1.1 -0.4,1.6l-0.3,1.6c-0.2,1.1 -0.4,2.2 -0.5,3.3c-0.1,0.5 -0.2,1.1 -0.2,1.6c-0.1,0.5 -0.1,1.1 -0.2,1.6c-0.1,1 -0.2,2 -0.3,3c-0.1,1 -0.1,1.9 -0.2,2.7c-0.1,1.7 -0.1,3.1 -0.2,4.1c0,1 -0.1,1.5 -0.1,1.5c0,0 0,-0.6 0,-1.5c0,-1 -0.1,-2.4 0,-4.1c0,-0.8 0.1,-1.8 0.1,-2.7c0,-1 0.1,-2 0.2,-3c0,-0.5 0.1,-1.1 0.1,-1.6c0.1,-0.5 0.1,-1.1 0.2,-1.6c0.1,-1.1 0.3,-2.2 0.5,-3.3l0.3,-1.7c0.1,-0.5 0.3,-1.1 0.4,-1.6c0.2,-1.1 0.6,-2.1 0.9,-3.1c0.3,-1 0.7,-2 1,-2.9c0.4,-0.9 0.7,-1.7 1.1,-2.5c0.4,-0.8 0.8,-1.4 1.1,-2c0.4,-0.6 0.7,-1.1 1,-1.5c0.3,-0.4 0.6,-0.7 0.7,-0.9c0.2,-0.2 0.3,-0.3 0.3,-0.3z" fill="#1a324a"/></g><g><path d="M192.36631,178.1c8.4,2.9 33,1.2 37.8,0.4c4.7,-0.8 5.8,-5.2 6.5,-3.2c2.4,7.1 -12.1,8.2 -24.7,8.2c-12.6,-0.1 -22.4,-1.2 -28.5,-4.3c-2.5,-1.3 0.2,-4 0.2,-4c1.6,-0.7 0.2,-0.1 8.7,2.9z" fill="#4d3a29"/><path d="M236.66631,175.2c0,0 0.2,0.4 0.3,1.2c0,0.4 0,0.9 -0.1,1.5c-0.1,0.6 -0.4,1.2 -0.9,1.7c-0.5,0.5 -1.2,0.9 -1.9,1.2c-0.7,0.3 -1.5,0.7 -2.3,0.9c-1.6,0.5 -3.4,1 -5.2,1.2c-1.8,0.3 -3.6,0.4 -5.3,0.5c-1.7,0.1 -3.3,0.1 -4.7,0.1c-1.4,0 -2.5,0 -3.3,-0.1c-0.8,0 -1.2,-0.1 -1.2,-0.1c0,0 1.8,-0.1 4.5,-0.2c1.4,-0.1 2.9,-0.2 4.6,-0.3c1.7,-0.1 3.5,-0.3 5.3,-0.6c1.8,-0.3 3.5,-0.6 5.2,-1.1c0.8,-0.3 1.6,-0.5 2.3,-0.8c0.7,-0.3 1.4,-0.6 1.9,-1c1,-0.9 1.2,-2.1 1.2,-2.9c-0.3,-0.8 -0.4,-1.2 -0.4,-1.2z" fill="#33221b"/><path d="M182.76631,176.4c0,0 -0.2,0.2 -0.3,0.7c0,0.2 0,0.5 0.1,0.8c0.1,0.3 0.3,0.6 0.6,0.8c0.3,0.3 0.6,0.5 1.1,0.7c0.4,0.2 0.8,0.4 1.3,0.5c1,0.3 2,0.6 3.1,0.9c1,0.3 2.1,0.5 3.1,0.7c1,0.2 1.9,0.4 2.7,0.6c1.6,0.3 2.7,0.6 2.7,0.6c0,0 -1.1,0 -2.7,-0.2c-0.8,-0.1 -1.8,-0.2 -2.8,-0.4c-1,-0.2 -2.1,-0.4 -3.1,-0.7c-1.1,-0.3 -2.1,-0.6 -3.1,-1c-0.5,-0.2 -1,-0.4 -1.4,-0.6c-0.4,-0.2 -0.8,-0.5 -1.1,-0.8c-0.3,-0.3 -0.5,-0.7 -0.6,-1c-0.1,-0.4 0,-0.7 0.1,-0.9c0.1,-0.2 0.2,-0.4 0.3,-0.5c-0.1,-0.2 0,-0.2 0,-0.2z" fill="#33221b"/></g></g></g><g data-paper-data="{&quot;index&quot;:null}" id="Group"><g id="Shape"><path d="M222.56631,109.9c0,0 11.6,4.4 15.5,16c3.9,11.6 1.1,45.6 -2.1,50.2c-5,7.3 -26.4,7.8 -38.3,3c0,0 -5.5,1.4 -13,-1.2c-7.5,-2.6 -6.6,-43.2 0.6,-54c7.2,-10.8 26.1,-17.8 37.3,-14z" fill="#264a6e"/><path d="M192.26631,174.8c0,0 0.2,0.2 0.6,0.6c0.2,0.2 0.4,0.4 0.7,0.6c0.3,0.2 0.6,0.5 1,0.8c0.4,0.3 0.8,0.6 1.2,0.8c0.4,0.3 0.9,0.5 1.4,0.8c0.5,0.3 1.1,0.5 1.6,0.8c0.6,0.2 1.1,0.5 1.7,0.7c0.6,0.2 1.2,0.4 1.7,0.6c0.6,0.2 1.2,0.3 1.7,0.5c0.6,0.1 1.1,0.2 1.6,0.4c0.5,0.1 1,0.2 1.5,0.2c0.9,0.2 1.7,0.2 2.2,0.3c0.5,0.1 0.9,0.1 0.9,0.1c0,0 -0.3,0 -0.9,0c-0.5,0 -1.3,0 -2.3,-0.1c-0.5,0 -1,-0.1 -1.5,-0.1c-0.5,-0.1 -1.1,-0.2 -1.7,-0.3c-0.6,-0.1 -1.2,-0.3 -1.8,-0.4c-0.6,-0.1 -1.2,-0.4 -1.8,-0.6c-0.6,-0.2 -1.2,-0.5 -1.7,-0.7c-0.6,-0.3 -1.1,-0.5 -1.6,-0.8c-1,-0.6 -1.9,-1.3 -2.6,-1.9c-0.7,-0.6 -1.2,-1.2 -1.6,-1.6c-0.1,-0.5 -0.3,-0.7 -0.3,-0.7z" fill="#1a324a"/><path d="M188.86631,170.5c0,0 0.7,0.4 1.6,1c1,0.6 2.2,1.5 3.5,2.3c1.3,0.8 2.6,1.6 3.6,2.1c0.3,0.1 0.5,0.3 0.7,0.3c0.2,0.1 0.4,0.2 0.6,0.2c0.3,0.1 0.5,0.1 0.5,0.1c0,0 -0.2,0 -0.5,0c-0.2,0 -0.4,-0.1 -0.6,-0.1c-0.2,0 -0.5,-0.1 -0.8,-0.2c-1.1,-0.4 -2.5,-1.1 -3.8,-2c-1.3,-0.8 -2.5,-1.8 -3.4,-2.5c-0.9,-0.6 -1.4,-1.2 -1.4,-1.2z" fill="#1a324a"/><path d="M225.16631,111.7c0,0 1.7,0.5 3.9,1.9c0.6,0.4 1.1,0.8 1.7,1.3c0.6,0.5 1.2,1 1.8,1.6c0.3,0.3 0.6,0.6 0.9,0.9c0.3,0.3 0.5,0.7 0.8,1c0.6,0.7 1,1.4 1.5,2.2c0.4,0.8 0.9,1.6 1.3,2.3c0.3,0.8 0.7,1.6 1,2.4c0.3,0.8 0.5,1.6 0.7,2.3c0.2,0.7 0.3,1.4 0.4,2.1c0.1,0.6 0.2,1.2 0.3,1.8c0,0.5 0.1,1 0.1,1.4c0.1,0.8 0.1,1.2 0.1,1.2c0,0 -0.1,-0.4 -0.2,-1.2c-0.1,-0.4 -0.1,-0.8 -0.2,-1.4c-0.1,-0.5 -0.2,-1.1 -0.4,-1.7c-0.2,-0.6 -0.3,-1.3 -0.5,-2c-0.2,-0.7 -0.5,-1.4 -0.8,-2.2c-0.3,-0.7 -0.7,-1.5 -1,-2.3c-0.4,-0.7 -0.8,-1.5 -1.3,-2.3c-0.5,-0.7 -0.9,-1.5 -1.5,-2.1c-0.3,-0.3 -0.5,-0.7 -0.8,-1c-0.3,-0.3 -0.6,-0.6 -0.8,-0.9c-0.5,-0.6 -1.1,-1.1 -1.7,-1.6c-0.6,-0.5 -1.1,-0.9 -1.6,-1.3c-2,-1.8 -3.7,-2.4 -3.7,-2.4z" fill="#1a324a"/><path d="M226.16631,181.3c0,0 0.2,-0.1 0.7,-0.2c0.4,-0.1 1,-0.3 1.8,-0.5c0.4,-0.1 0.8,-0.2 1.1,-0.4c0.4,-0.2 0.8,-0.3 1.2,-0.6c0.4,-0.2 0.8,-0.4 1.3,-0.7c0.4,-0.3 0.8,-0.5 1.2,-0.8c0.4,-0.3 0.8,-0.6 1.1,-1c0.3,-0.3 0.7,-0.7 0.9,-1.1c0.1,-0.2 0.3,-0.4 0.4,-0.5c0.1,-0.2 0.2,-0.4 0.3,-0.6c0.2,-0.4 0.4,-0.7 0.5,-1.1c0.1,-0.4 0.3,-0.7 0.4,-1c0.1,-0.3 0.1,-0.6 0.2,-0.8c0.1,-0.4 0.2,-0.7 0.2,-0.7c0,0 0,0.3 -0.1,0.7c0,0.2 0,0.5 -0.1,0.8c-0.1,0.3 -0.2,0.7 -0.3,1c-0.1,0.4 -0.3,0.8 -0.5,1.2c-0.1,0.2 -0.2,0.4 -0.3,0.6c-0.1,0.2 -0.3,0.4 -0.4,0.6c-0.3,0.4 -0.6,0.8 -1,1.2c-0.3,0.4 -0.8,0.7 -1.2,1.1c-0.4,0.3 -0.9,0.6 -1.3,0.8c-0.5,0.2 -0.9,0.5 -1.4,0.7c-0.4,0.2 -0.9,0.4 -1.3,0.5c-0.4,0.1 -0.8,0.2 -1.2,0.3c-1.2,0.5 -2.2,0.5 -2.2,0.5z" fill="#1a324a"/><path d="M180.96631,170.8c0,0 0.2,0.9 0.7,2.3c0.2,0.7 0.6,1.4 1,2.2c0.2,0.4 0.5,0.7 0.7,1.1c0.3,0.4 0.6,0.6 1,0.9c0.7,0.5 1.6,0.9 2.4,1.2c0.8,0.3 1.6,0.5 2.3,0.6c0.7,0.1 1.3,0.2 1.7,0.2c0.4,0 0.7,0.1 0.7,0.1c0,0 -0.2,0 -0.7,0.1c-0.4,0 -1,0.1 -1.7,0c-0.4,0 -0.8,-0.1 -1.2,-0.1c-0.4,-0.1 -0.8,-0.1 -1.3,-0.3c-0.9,-0.2 -1.8,-0.6 -2.6,-1.2c-0.4,-0.3 -0.8,-0.7 -1.1,-1.1c-0.3,-0.4 -0.5,-0.8 -0.8,-1.2c-0.4,-0.8 -0.7,-1.6 -0.9,-2.3c-0.2,-0.7 -0.3,-1.3 -0.3,-1.7c0.1,-0.6 0.1,-0.8 0.1,-0.8z" fill="#1a324a"/></g><g id="Shape"><g><path d="M229.06631,113.8c0,0 -16.8,2.7 -5,62.9c0,0 -10.4,2.5 -14.7,-0.7c0,0 -1,-44.2 4.6,-57.4c2.5,-5.9 4.1,-6.3 7.6,-8.2c0,0 6.5,0.9 7.5,3.4z" fill="#724a96"/><path d="M214.26631,177.5c1.6,0 3.3,-0.1 4.9,-0.2c1.6,-0.2 3.3,-0.3 4.8,-0.8l-0.1,0.3c-1,-3.4 -1.7,-6.9 -2.2,-10.4c-0.3,-1.7 -0.5,-3.5 -0.7,-5.2c-0.2,-1.8 -0.4,-3.5 -0.5,-5.3c-0.1,-1.8 -0.3,-3.5 -0.3,-5.3c-0.1,-1.8 -0.1,-3.5 -0.1,-5.3c0,-1.8 0,-3.5 0,-5.3c0,-0.9 0.1,-1.8 0.1,-2.6l0.1,-2.6v2.6c0,0.9 0,1.8 0,2.6c0.1,1.8 0,3.5 0.1,5.3l0.1,2.6l0.2,2.6c0.1,1.8 0.2,3.5 0.4,5.3c0.2,1.8 0.3,3.5 0.6,5.2c0.2,1.7 0.4,3.5 0.7,5.2c0.3,1.7 0.6,3.5 0.9,5.2c0.3,1.7 0.7,3.5 1.1,5.1l0.1,0.2l-0.2,0.1c-0.8,0.2 -1.6,0.4 -2.4,0.5c-0.8,0.1 -1.6,0.1 -2.5,0.2c-1.8,0.1 -3.4,0.1 -5.1,0z" fill="#3b2656"/><path d="M218.56631,114.4c0,0 -0.3,0.5 -0.8,1.5c-0.2,0.5 -0.5,1.1 -0.8,1.8c-0.3,0.7 -0.5,1.5 -0.8,2.4c-0.3,0.9 -0.6,1.9 -0.9,2.9c-0.3,1.1 -0.5,2.2 -0.8,3.3c-0.3,1.2 -0.5,2.4 -0.8,3.6c-0.3,1.2 -0.4,2.5 -0.6,3.7c-0.2,1.2 -0.4,2.5 -0.6,3.7c-0.2,1.2 -0.3,2.5 -0.5,3.6c-0.1,1.2 -0.3,2.3 -0.4,3.4c-0.1,1.1 -0.2,2.1 -0.3,3.1c-0.4,3.8 -0.6,6.3 -0.6,6.3c0,0 0,-0.6 0,-1.7c0,-0.6 0,-1.2 0.1,-2c0,-0.8 0,-1.6 0.1,-2.6c0.2,-1.9 0.2,-4.1 0.5,-6.5c0.1,-1.2 0.2,-2.4 0.4,-3.6c0.2,-1.2 0.3,-2.5 0.5,-3.8c0.2,-1.2 0.4,-2.5 0.7,-3.7c0.3,-1.2 0.5,-2.4 0.8,-3.6c0.3,-1.2 0.6,-2.3 0.9,-3.3c0.3,-1 0.6,-2 1,-2.9c0.3,-0.9 0.6,-1.7 1,-2.4c0.3,-0.7 0.6,-1.3 0.9,-1.8c0.6,-0.9 1,-1.4 1,-1.4z" fill="#3b2656"/></g><path d="M221.96631,172.2c-1,1.3 -2.6,2.1 -4.3,2.1c-3.1,0 -5.5,-2.5 -5.5,-5.5c0,-2.5 1.7,-4.7 4,-5.3c-0.8,1 -1.2,2.1 -1.2,3.4c0,3.1 2.5,5.5 5.5,5.5c0.5,0 0.9,-0.1 1.5,-0.2z" fill="#e6af50"/></g><g id="Shape"><g><path d="M196.36631,113.1c0,0 -5.6,24.2 -1.9,62.5c0,0 -10.4,2.5 -14.7,-0.7c0,0 1.7,-43.9 7,-57.2c1.7,-4.3 1.8,-4.3 3.4,-5.7c0,0 5.3,-1.4 6.2,1.1z" fill="#724a96"/><path d="M184.56631,176.5c1.6,0 3.3,-0.1 4.9,-0.2c1.6,-0.2 3.3,-0.3 4.8,-0.8l-0.1,0.2c-0.5,-3.5 -0.7,-7 -0.9,-10.5c-0.1,-1.8 -0.1,-3.5 -0.1,-5.3c0,-0.9 0,-1.8 0,-2.6c0,-0.9 0,-1.8 0,-2.6c0,-1.8 0.1,-3.5 0.2,-5.2c0.1,-1.7 0.2,-3.5 0.3,-5.2c0.1,-1.7 0.3,-3.5 0.5,-5.2l0.6,-5.2l-0.3,5.2l-0.3,5.2c-0.2,3.5 -0.3,7 -0.3,10.5c0,0.9 0,1.7 0,2.6v2.6c0,1.7 0,3.5 0.1,5.2c0.1,1.7 0.1,3.5 0.2,5.2c0.1,1.7 0.2,3.5 0.4,5.2v0.2h-0.2c-0.8,0.2 -1.6,0.4 -2.4,0.5c-0.8,0.1 -1.6,0.1 -2.5,0.2c-1.6,0.1 -3.2,0 -4.9,0z" fill="#3b2656"/><path d="M188.86631,113.4c0,0 -0.3,0.5 -0.8,1.5c-0.2,0.5 -0.5,1.1 -0.8,1.8c-0.3,0.7 -0.5,1.5 -0.8,2.4c-0.3,0.9 -0.6,1.9 -0.9,2.9c-0.3,1.1 -0.5,2.2 -0.8,3.3c-0.3,1.2 -0.5,2.4 -0.8,3.6c-0.3,1.2 -0.4,2.5 -0.6,3.7c-0.2,1.2 -0.4,2.5 -0.6,3.7c-0.2,1.2 -0.3,2.5 -0.5,3.6c-0.1,1.2 -0.3,2.3 -0.4,3.4c-0.1,1.1 -0.2,2.1 -0.3,3.1c-0.4,3.8 -0.6,6.3 -0.6,6.3c0,0 0,-0.6 0,-1.7c0,-0.6 0,-1.2 0.1,-2c0,-0.8 0,-1.6 0.1,-2.6c0.2,-1.9 0.2,-4.1 0.5,-6.5c0.1,-1.2 0.2,-2.4 0.4,-3.6c0.2,-1.2 0.3,-2.5 0.5,-3.8c0.2,-1.2 0.4,-2.5 0.7,-3.7c0.3,-1.2 0.5,-2.4 0.8,-3.6c0.3,-1.2 0.6,-2.3 0.9,-3.3c0.3,-1 0.6,-2 1,-2.9c0.3,-0.9 0.6,-1.7 1,-2.4c0.3,-0.7 0.6,-1.3 0.9,-1.8c0.6,-0.9 1,-1.4 1,-1.4z" fill="#3b2656"/></g><path d="M190.66631,173.1c0,0 -2,-0.6 -4.2,-2.1c-1.5,1.1 -3,2 -3.6,2c0,0 0.5,-1.8 1.2,-3.9c-1,-0.9 -1.7,-1.8 -1.9,-2.5c0,0 1.3,-0.2 2.9,-0.3c0.4,-1.4 1,-2.7 1.4,-3.5c0,0 0.8,1.5 1.7,3.4c1.3,0.1 2.5,0.2 3.4,0.6c0,0 -1,0.9 -2.3,2c0.8,1.8 1.2,3.1 1.4,4.3z" fill="#e6af50"/></g></g><g data-paper-data="{&quot;index&quot;:null}" id="Group"><g id="Shape"><path d="M232.66631,213.1l-0.8,4.1c1.7,1 1.5,3.7 0.4,4.9c-2,2.2 -4.1,1 -4.1,1c-2,0.9 -3.8,-0.6 -3.8,-0.6c-2.5,1 -3.1,-1.1 -3.1,-1.1c-2.1,0.1 -2.1,-1 -2,-2.9c0.1,-1.9 1.5,-10.1 1.5,-10.1" fill="#c5886b"/><path d="M220.16631,217.9c-2.5,1.6 -3.2,-0.3 -2,-2.2c1.6,-2.5 2.5,-6.4 2.5,-6.4" fill="#c5886b"/><path d="M232.36631,214.7c0,0 0,0.4 0,1c0,0.6 -0.1,1.4 -0.3,2.2c-0.2,0.8 -0.5,1.6 -0.7,2.1c-0.1,0.3 -0.3,0.5 -0.4,0.6c-0.1,0.1 -0.2,0.2 -0.2,0.2c0,0 0,-0.1 0.1,-0.3c0.1,-0.2 0.1,-0.4 0.2,-0.7c0.1,-0.6 0.3,-1.4 0.5,-2.1c0.2,-0.8 0.4,-1.6 0.6,-2.1c0,-0.6 0.2,-0.9 0.2,-0.9z" fill="#a95947"/><path d="M227.36631,220.8c0,0 0.1,0.2 0.3,0.5c0.2,0.3 0.3,0.7 0.5,1c0.1,0.2 0.2,0.3 0.3,0.5c0.1,0.1 0.2,0.3 0.3,0.4c0.1,0.1 0.2,0.2 0.3,0.2c0.1,0.1 0.1,0.1 0.1,0.1c0,0 -0.2,0.1 -0.6,0c-0.2,0 -0.4,-0.1 -0.6,-0.3c-0.2,-0.2 -0.3,-0.3 -0.5,-0.6c-0.2,-0.4 -0.3,-0.9 -0.3,-1.2c0.1,-0.4 0.2,-0.6 0.2,-0.6z" fill="#a95947"/><path d="M223.76631,220.5c0,0 0.1,0.2 0.2,0.5c0.1,0.3 0.3,0.7 0.5,1c0.2,0.3 0.4,0.6 0.6,0.9c0.1,0.1 0.2,0.2 0.3,0.3c0.1,0.1 0.1,0.1 0.1,0.1c0,0 -0.2,0.1 -0.6,-0.1c-0.2,-0.1 -0.4,-0.2 -0.6,-0.3c-0.2,-0.1 -0.3,-0.4 -0.5,-0.6c-0.2,-0.4 -0.3,-0.9 -0.3,-1.3c0.2,-0.3 0.3,-0.5 0.3,-0.5z" fill="#a95947"/><path d="M220.86631,219.5c0,0 0.1,0.2 0.2,0.5c0.1,0.3 0.3,0.7 0.4,1.1c0.1,0.4 0.2,0.8 0.4,1c0.1,0.1 0.1,0.3 0.2,0.3c0.1,0.1 0.1,0.1 0.1,0.1c0,0 -0.1,0 -0.2,0c-0.1,0 -0.3,-0.1 -0.4,-0.2c-0.3,-0.2 -0.6,-0.7 -0.7,-1.1c-0.1,-0.4 -0.2,-0.9 -0.1,-1.2c0.1,-0.2 0.1,-0.5 0.1,-0.5z" fill="#a95947"/><path d="M231.26631,219c0,0 0.1,0 0.3,0.1c0.2,0.1 0.3,0.2 0.5,0.4c0.1,0.2 0.2,0.4 0.2,0.6c0,0.2 -0.1,0.3 -0.1,0.3c0,0 -0.1,-0.1 -0.3,-0.2c-0.1,-0.1 -0.3,-0.2 -0.4,-0.4c-0.1,-0.2 -0.2,-0.3 -0.2,-0.5c0,-0.1 0,-0.3 0,-0.3z" fill="#a95947"/><path d="M219.36631,220.3c0,0 -0.2,-0.4 -0.3,-1.1c-0.1,-0.7 -0.1,-1.6 0,-2.5c0.1,-0.9 0.3,-1.8 0.6,-2.5c0.2,-0.7 0.5,-1.1 0.5,-1.1c0,0 0,0.1 0,0.3c0,0.2 0,0.5 -0.1,0.8c-0.1,0.7 -0.2,1.6 -0.3,2.5c-0.1,0.9 -0.2,1.8 -0.2,2.5c-0.2,0.7 -0.2,1.1 -0.2,1.1z" fill="#a95947"/></g><g id="Shape"><path d="M244.26631,173.3c0.6,19.7 -4.3,40.2 -4.3,40.2c0,0 -19.1,3.1 -24.3,-6.9c0,0 6.7,-14.2 7.1,-19.2c0.4,-4.9 -0.2,-11.7 2,-16.6c2.2,-4.9 5.6,-5.8 10.4,-5.9c5.2,-0.1 9,3.5 9.1,8.4z" fill="#264a6e"/><path d="M224.86631,170.5c0,0 -0.1,0.3 -0.2,0.8c-0.2,0.5 -0.3,1.3 -0.5,2.2c-0.2,0.9 -0.3,2 -0.5,3.1c-0.1,1.2 -0.2,2.4 -0.2,3.6c0,1.2 0,2.5 0,3.6c0,0.6 0.1,1.1 0.1,1.7c0,0.5 0.1,1 0.1,1.5c0.1,0.9 0.2,1.7 0.2,2.2c0,0.5 0.1,0.9 0.1,0.9c0,0 -0.1,-0.3 -0.2,-0.8c-0.1,-0.5 -0.3,-1.3 -0.4,-2.2c-0.2,-0.9 -0.3,-2 -0.4,-3.2c-0.1,-1.2 -0.1,-2.4 -0.1,-3.7c0.1,-1.3 0.2,-2.5 0.3,-3.7c0.2,-1.2 0.4,-2.2 0.7,-3.1c0.2,-0.9 0.5,-1.6 0.7,-2.2c0.2,-0.4 0.3,-0.7 0.3,-0.7z" fill="#1a324a"/><path d="M221.76631,192.1c-0.7,2.5 -1.7,5 -2.7,7.4c-0.5,1.2 -1,2.4 -1.6,3.6c-0.5,1.2 -1.1,2.4 -1.7,3.6v-0.3c0.3,0.5 0.6,1 1,1.5c0.4,0.5 0.8,0.9 1.3,1.3c0.4,0.4 0.9,0.8 1.4,1.2c0.5,0.4 1,0.7 1.6,1c0.6,0.3 1.1,0.6 1.7,0.8c0.6,0.2 1.2,0.4 1.8,0.6c0.6,0.2 1.2,0.3 1.8,0.4c0.3,0.1 0.6,0.1 0.9,0.1l0.9,0.1c-0.6,0 -1.3,0 -1.9,-0.1c-0.6,-0.1 -1.3,-0.1 -1.9,-0.3c-0.6,-0.1 -1.2,-0.3 -1.8,-0.5c-0.6,-0.2 -1.2,-0.5 -1.8,-0.7l-0.8,-0.4c-0.3,-0.1 -0.5,-0.3 -0.8,-0.5c-0.5,-0.4 -1,-0.7 -1.5,-1.2c-0.5,-0.4 -0.9,-0.9 -1.3,-1.4c-0.4,-0.5 -0.8,-1 -1.1,-1.6l-0.1,-0.1l0.1,-0.1c0.6,-1.2 1.2,-2.4 1.7,-3.5l1.6,-3.6c1.2,-2.5 2.2,-4.9 3.2,-7.3z" fill="#1a324a"/><path d="M244.26631,178.7c0,0 0.1,0.5 0.1,1.5c0,1 0.1,2.3 0.1,4c0,1.7 -0.1,3.6 -0.3,5.6c-0.2,2.1 -0.4,4.3 -0.7,6.4c-0.3,2.2 -0.7,4.4 -1,6.4c-0.4,2 -0.8,3.9 -1.1,5.5c-0.3,1.6 -0.7,2.9 -0.9,3.9c-0.2,0.9 -0.4,1.5 -0.4,1.5c0,0 0.4,-2.2 0.9,-5.4c0.3,-1.6 0.6,-3.5 0.9,-5.6c0.3,-2 0.7,-4.2 0.9,-6.4c0.3,-2.2 0.6,-4.4 0.8,-6.4c0.2,-2 0.4,-4 0.5,-5.6c0.1,-1.6 0.2,-3 0.2,-4c0,-0.9 0,-1.4 0,-1.4z" fill="#1a324a"/></g><g id="Shape"><path d="M234.86631,173c-5.2,0.3 -8.8,-1.2 -9.6,-2.2c-0.9,-1 -1.8,-1.5 -1.5,-5.5c0.3,-4 0.8,-2.6 -0.2,-8c-1,-5.4 -4.9,-19.9 -4.3,-28.1c0.8,-10.6 10.1,-13.1 15.7,-9.2c5.2,3.6 11.4,41.9 9.2,48.8c-1.2,3.8 -4.1,4 -9.3,4.2z" fill="#264a6e"/><path d="M241.56631,171.9c0,0 0.1,0 0.3,-0.1c0.2,-0.1 0.5,-0.2 0.8,-0.5c0.2,-0.1 0.3,-0.3 0.4,-0.5c0.1,-0.2 0.3,-0.4 0.4,-0.7c0.3,-0.5 0.4,-1.1 0.6,-1.8c0.1,-0.7 0.3,-1.4 0.3,-2.3c0.1,-0.8 0.1,-1.7 0.1,-2.6c0.1,-0.9 0,-1.8 0,-2.8c0,-0.9 -0.1,-1.9 -0.2,-2.8c-0.1,-1 -0.1,-1.9 -0.3,-2.8c-0.1,-0.9 -0.2,-1.9 -0.3,-2.7c-0.1,-0.9 -0.3,-1.7 -0.4,-2.6c-0.1,-0.8 -0.2,-1.6 -0.3,-2.3c-0.5,-2.8 -0.8,-4.7 -0.8,-4.7c0,0 0.5,1.9 1.1,4.7c0.2,0.7 0.3,1.5 0.4,2.3c0.1,0.8 0.3,1.7 0.5,2.6c0.1,0.9 0.2,1.8 0.4,2.8c0.1,0.9 0.2,1.9 0.3,2.9c0.1,1 0.2,1.9 0.2,2.9c0,1 0.1,1.9 0,2.8c0,0.9 -0.1,1.8 -0.2,2.6c-0.1,0.8 -0.3,1.6 -0.5,2.3c-0.2,0.7 -0.4,1.3 -0.8,1.8c-0.1,0.3 -0.3,0.5 -0.5,0.7c-0.1,0.2 -0.3,0.4 -0.5,0.5c-0.3,0.3 -0.7,0.4 -0.9,0.5c0,-0.1 -0.1,-0.2 -0.1,-0.2z" fill="#1a324a"/><path d="M222.76631,153.3c0,0 0.4,1.3 0.9,3.2c0.2,1 0.5,2.1 0.7,3.3c0.1,0.6 0.2,1.3 0.2,1.9c0,0.7 0,1.4 -0.2,2.1c-0.3,1.2 -0.4,2.5 -0.2,3.7c0.2,1.2 0.5,2.3 1.1,3c0.6,0.8 1.3,1.2 1.9,1.3c0.5,0.2 0.9,0.2 0.9,0.2c0,0 -0.1,0 -0.2,0c-0.2,0 -0.4,0 -0.7,-0.1c-0.6,-0.1 -1.4,-0.4 -2.1,-1.2c-0.7,-0.8 -1.2,-1.9 -1.4,-3.2c-0.2,-1.3 -0.2,-2.6 0.1,-4c0.2,-0.6 0.2,-1.2 0.2,-1.9c0,-0.6 -0.1,-1.3 -0.2,-1.9c-0.1,-1.2 -0.3,-2.4 -0.5,-3.3c-0.3,-1.8 -0.5,-3.1 -0.5,-3.1z" fill="#1a324a"/></g></g><g data-paper-data="{&quot;index&quot;:null}" id="Group"><path d="M208.46631,83.5c6.5,0.4 39.5,12.8 40.4,13.9c0.9,1.1 -34.1,0.5 -46.3,-0.2c-12.2,-0.7 -40.2,-6.2 -39.1,-6.9c2.8,-1.9 38.5,-7.3 45,-6.8z" id="Shape" fill="#1a324a"/><g><path d="M221.36631,97.5c1.8,10.8 -3,21.5 -18.7,21c-18.2,-0.5 -19.2,-12.3 -16.8,-23.1c2.7,-11.9 7.8,-20.5 18.8,-20.2c11,0.3 14.8,10.9 16.7,22.3z" id="Shape" fill="#c5886b"/><g id="Shape"><path d="M196.26631,112c0,0 0.1,0.1 0.2,0.2c0.1,0.1 0.3,0.2 0.5,0.3c0.2,0.1 0.4,0.2 0.5,0.3c0.2,0.1 0.3,0.2 0.3,0.2c0,0 -0.1,0.1 -0.4,0.1c-0.2,0 -0.5,0 -0.8,-0.1c-0.3,-0.1 -0.5,-0.4 -0.5,-0.7c0.1,-0.2 0.2,-0.3 0.2,-0.3z" fill="#99918a"/><path d="M226.16631,132.8c0,0 2.4,-2.5 -0.5,-4c0,0 0.7,1.5 -1.3,3.1c-2,1.5 0.5,4 2.2,4.1c0,0 -3,0.7 -4,-0.4c0.4,1.2 1,3.6 -0.8,4.6c-2.4,1.3 -3.3,2.9 -3,4.8c0,0 -2.9,-0.6 -1.4,-3.7c0,0 -1.1,2.4 -0.5,4.7c0.6,2.7 -2.7,5.4 -4.8,6.1c0,0 0.6,2.8 -2.1,3.8c-2.7,1 -0.1,8.4 3.3,5.8c3.4,-2.6 -0.6,-3.3 -0.6,-3.3c0,0 3.5,-0.5 3.4,2c-0.1,2.5 -2.9,5.5 -7.5,2.9c0,0 1.8,1.9 4,1.7c0,0 -5.7,1.4 -7.7,-2.1c0,0 -5,0.7 -6,-5.6c0.1,0.3 0.6,4.1 -1.4,4.3c0,0 0.9,-3.9 -1.8,-4.6c-2.7,-0.7 -3.7,-5.1 -3.6,-7.4c0,0 -1.8,2.8 -0.3,5c0,0 -4.3,-1.7 -2.6,-7.7c0,0 -1.8,3.6 -4.5,3.1c0,0 2.8,-2.8 1.9,-5c-1,-2.3 -1.7,-4.4 -0.4,-8c0,0 -1.6,1.2 -5.2,0.3c0,0 5.4,-0.5 4.1,-3.7c0,0 -2.4,0.7 -3.6,0.7c0,0 3.7,-2.6 2.2,-4.8c-1.4,-2.2 -0.7,-5.1 0.1,-8.2c-0.1,0.4 -0.8,1.9 -3.8,1.5c0,0 4,-1.6 2.7,-4.5c-1.2,-2.9 -1.4,-7 -0.3,-9.1c0,0 -1.9,-3.4 1.1,-6.6c0,0 -1.5,0.6 -3.6,0.2c0,0 3,0 3.1,-2.5c0.1,-2.5 1.3,-15.9 7.8,-21.2c2.2,-1.7 7.6,-4.6 10.2,-4.5c1.5,0 2.9,-0.1 3.5,0.6c0.4,-0.2 1,-0.2 1.7,-0.2c3.8,-0.1 16,3.4 16.8,14.3c0.8,11 -0.2,14.9 3.3,16.8c3.5,1.9 1.9,6.4 1.9,6.4c0,0 -0.4,-3 -1.3,-3.1c0,0 1.2,5.3 -0.8,7.2c-2,1.9 -0.6,8.7 3.6,8.7c0,0 -5.5,0.6 -5.8,-3.2c0,0 -0.2,3.4 3.3,5.1c3.5,1.7 1.3,5.6 -1,5.6zM213.96631,89.4c-2.9,-3.7 -10.2,-6.7 -11.3,-9.8c-2.6,2.4 -7.1,1.9 -10.5,7.9c-2.3,4 -3.7,6.2 -4.4,10c-0.8,3.7 2.4,4.6 2.4,4.6c-2.4,1 -3,-1 -3,-1c-0.9,2.9 1.4,3.9 1.4,3.9c5.2,-0.3 7.8,4.2 7.8,4.2l4.9,1.8l5.6,-3c2.6,-2.9 6.5,-0.7 6.5,-0.7c0,0 -0.8,-1.2 2.5,-5.7c3.3,-4.5 -1.9,-12.1 -1.9,-12.2z" fill="#c8bdb4"/><path d="M202.86631,77.1c0,0 0,-0.1 0,-0.4c0.1,-0.2 0.2,-0.6 0.4,-0.9c0.1,-0.2 0.3,-0.3 0.5,-0.5c0.2,-0.1 0.4,-0.3 0.7,-0.4c0.5,-0.2 1,-0.3 1.6,-0.3c0.3,0 0.5,0 0.8,0c0.3,0 0.5,0.1 0.8,0.1c0.5,0.1 1,0.2 1.3,0.3c0.8,0.3 1.2,0.5 1.2,0.5c0,0 -0.5,0 -1.3,-0.1c-0.4,0 -0.8,-0.1 -1.3,-0.1c-0.5,0 -1,-0.1 -1.5,0c-0.2,0 -0.5,0 -0.7,0.1c-0.2,0.1 -0.5,0.1 -0.7,0.2c-0.2,0.1 -0.4,0.1 -0.6,0.2c-0.2,0.1 -0.4,0.2 -0.5,0.3c-0.3,0.2 -0.5,0.5 -0.6,0.7c0,0.2 -0.1,0.3 -0.1,0.3z" fill="#99918a"/><path d="M202.66631,78.4c0,0 -0.1,0.2 -0.1,0.4c0,0.1 0,0.3 0.1,0.5c0.1,0.2 0.2,0.4 0.3,0.6c0.1,0.2 0.3,0.4 0.5,0.6c0.2,0.2 0.4,0.4 0.6,0.7c0.4,0.4 0.9,0.9 1.4,1.3c0.5,0.4 1,0.8 1.5,1.2c0.5,0.4 1,0.7 1.4,1c0.8,0.6 1.3,1 1.3,1c0,0 -0.6,-0.3 -1.5,-0.7c-0.9,-0.5 -2.1,-1.2 -3.1,-2.1c-0.5,-0.4 -1,-0.9 -1.4,-1.4c-0.2,-0.2 -0.4,-0.5 -0.6,-0.8c-0.2,-0.3 -0.3,-0.5 -0.4,-0.8c-0.1,-0.2 -0.2,-0.5 -0.2,-0.7c0,-0.2 0,-0.4 0,-0.6c0.1,0 0.2,-0.2 0.2,-0.2z" fill="#99918a"/><path d="M214.56631,103.4c0,0 -0.2,0.5 -0.5,1.2c-0.1,0.4 -0.3,0.8 -0.4,1.2c-0.1,0.2 -0.1,0.5 -0.1,0.7c0,0.2 -0.1,0.5 0,0.7c0,0.2 0,0.5 0.1,0.7c0,0.2 0.1,0.5 0.1,0.7c0,0.2 0.1,0.4 0.2,0.6c0.1,0.2 0.2,0.4 0.3,0.5c0.1,0.2 0.2,0.3 0.3,0.4c0.1,0.1 0.2,0.2 0.2,0.3c0.1,0.2 0.2,0.3 0.2,0.3c0,0 -0.1,-0.1 -0.3,-0.2c-0.1,-0.1 -0.2,-0.2 -0.3,-0.3c-0.1,-0.1 -0.2,-0.2 -0.4,-0.4c-0.1,-0.1 -0.3,-0.3 -0.4,-0.5c-0.1,-0.2 -0.3,-0.4 -0.3,-0.7c-0.2,-0.5 -0.3,-1 -0.3,-1.6c0,-0.5 0.1,-1.1 0.3,-1.6c0.2,-0.5 0.4,-0.9 0.6,-1.2c0.3,-0.4 0.7,-0.8 0.7,-0.8z" fill="#99918a"/><path d="M190.16631,102.2c0,0 -0.4,0.3 -1.1,0.4c-0.4,0 -0.8,0 -1.2,-0.2c-0.2,-0.1 -0.4,-0.2 -0.6,-0.4c-0.2,-0.2 -0.3,-0.4 -0.5,-0.6c-0.1,-0.2 -0.2,-0.4 -0.3,-0.7c-0.1,-0.2 -0.1,-0.4 -0.2,-0.7c-0.1,-0.3 -0.1,-0.7 -0.1,-1.1c0,-0.7 0.1,-1.1 0.1,-1.1c0,0 0.1,0.4 0.3,1.1c0.1,0.3 0.2,0.7 0.3,1.1c0.1,0.2 0.1,0.4 0.2,0.6c0.1,0.2 0.2,0.4 0.3,0.5c0.1,0.2 0.2,0.3 0.4,0.5c0.1,0.2 0.3,0.3 0.4,0.4c0.2,0.1 0.3,0.2 0.5,0.2c0.2,0.1 0.3,0.1 0.5,0.1c0.3,0 0.6,0 0.8,0c0.1,0 0.2,-0.1 0.2,-0.1z" fill="#99918a"/><path d="M179.86631,102.8c0,0 0.4,0 0.9,-0.1c0.5,0 1.2,-0.1 1.9,-0.2c0.3,-0.1 0.7,-0.1 1,-0.3c0.1,-0.1 0.3,-0.1 0.4,-0.2c0.1,-0.1 0.3,-0.1 0.4,-0.2c0.2,-0.1 0.4,-0.2 0.5,-0.4c0.1,-0.1 0.2,-0.2 0.2,-0.2c0,0 -0.1,0.4 -0.5,0.8c-0.2,0.2 -0.5,0.4 -0.8,0.6c-0.3,0.2 -0.7,0.3 -1.1,0.4c-0.8,0.1 -1.5,0.1 -2.1,-0.1c-0.5,0.1 -0.8,-0.1 -0.8,-0.1z" fill="#99918a"/><path d="M223.06631,92.8c0,0 0.2,0.9 0.3,2.3c0.1,0.7 0.2,1.5 0.3,2.4c0.1,0.9 0.2,1.8 0.3,2.7c0,0.5 0.1,0.9 0.1,1.4c0,0.5 0.1,0.9 0.1,1.3c0.1,0.8 0.5,1.5 0.9,2c0.5,0.5 0.9,0.9 1.2,1.1c0.3,0.2 0.5,0.4 0.5,0.4c0,0 -0.2,-0.1 -0.6,-0.3c-0.2,-0.1 -0.4,-0.2 -0.7,-0.4c-0.2,-0.2 -0.5,-0.3 -0.8,-0.6c-0.3,-0.3 -0.5,-0.5 -0.8,-0.9c-0.2,-0.4 -0.4,-0.8 -0.5,-1.3c-0.1,-0.5 -0.1,-0.9 -0.2,-1.4c-0.1,-0.5 -0.1,-0.9 -0.2,-1.4c-0.1,-1.9 -0.2,-3.7 -0.2,-5.2c0.3,-1.1 0.3,-2.1 0.3,-2.1z" fill="#99918a"/><path d="M226.86631,109.5c0,0 0.1,0.3 0.3,0.8c0.1,0.5 0.3,1.2 0.4,2.1c0,0.4 0,0.9 0,1.4c-0.1,0.5 -0.1,1.1 -0.4,1.6c-0.2,0.5 -0.5,1.1 -0.8,1.5c-0.3,0.5 -0.5,0.9 -0.6,1.5c-0.1,0.5 -0.2,1.1 -0.1,1.6c0,0.5 0.1,1.1 0.3,1.6c0.1,0.5 0.4,1 0.6,1.4c0.2,0.4 0.5,0.8 0.8,1.1c0.1,0.2 0.3,0.3 0.4,0.4c0.1,0.1 0.3,0.2 0.4,0.3c0.3,0.2 0.6,0.3 0.8,0.4c0.2,0.1 0.4,0.1 0.6,0.1c0.1,0 0.2,0 0.2,0c0,0 -0.1,0 -0.2,0c-0.1,0 -0.3,0 -0.6,0c-0.2,-0.1 -0.6,-0.1 -0.9,-0.3c-0.3,-0.1 -0.7,-0.4 -1,-0.7c-0.3,-0.3 -0.7,-0.7 -1,-1.1c-0.3,-0.4 -0.6,-0.9 -0.7,-1.5c-0.2,-0.5 -0.3,-1.1 -0.4,-1.7c0,-0.6 0,-1.2 0.1,-1.8c0.1,-0.6 0.4,-1.2 0.8,-1.7c0.3,-0.5 0.6,-0.9 0.8,-1.4c0.4,-1 0.5,-2 0.6,-2.8c0,-0.9 0,-1.6 -0.1,-2.1c-0.2,-0.4 -0.3,-0.7 -0.3,-0.7z" fill="#99918a"/><path d="M226.16631,133c0,0 0.2,-0.3 0.4,-0.9c0.1,-0.3 0.2,-0.6 0.2,-0.9c0,-0.2 0,-0.3 0,-0.5c0,-0.2 -0.1,-0.3 -0.1,-0.5c-0.1,-0.1 -0.1,-0.3 -0.2,-0.4c-0.1,-0.1 -0.2,-0.3 -0.3,-0.4c-0.1,-0.1 -0.2,-0.2 -0.3,-0.3c-0.1,-0.1 -0.2,-0.2 -0.3,-0.3c-0.2,-0.2 -0.4,-0.3 -0.5,-0.4c-0.1,-0.1 -0.2,-0.2 -0.2,-0.2c0,0 0.1,0 0.3,0.1c0.2,0.1 0.4,0.1 0.7,0.2c0.3,0.1 0.6,0.3 0.9,0.5c0.2,0.1 0.3,0.3 0.4,0.4c0.1,0.2 0.2,0.4 0.3,0.6c0.1,0.2 0.1,0.4 0.1,0.6c0,0.2 0,0.4 0,0.6c-0.1,0.4 -0.3,0.7 -0.4,1c-0.7,0.6 -1,0.8 -1,0.8z" fill="#99918a"/><path d="M226.66631,136.2c0,0 -0.5,0.2 -1.3,0.4c-0.4,0.1 -0.9,0.1 -1.4,0c-0.3,0 -0.5,-0.1 -0.8,-0.2c-0.3,-0.1 -0.5,-0.2 -0.8,-0.4c-0.3,-0.2 -0.5,-0.4 -0.6,-0.6c-0.2,-0.2 -0.3,-0.5 -0.5,-0.7c-0.1,-0.2 -0.2,-0.5 -0.2,-0.7c-0.1,-0.2 -0.1,-0.5 -0.1,-0.7c-0.1,-0.4 0,-0.8 0,-1c0,-0.2 0.1,-0.4 0.1,-0.4c0,0 0,0.1 0.1,0.4c0.1,0.2 0.1,0.6 0.2,0.9c0.1,0.2 0.1,0.4 0.2,0.6c0.1,0.2 0.2,0.4 0.3,0.6c0.1,0.2 0.2,0.4 0.4,0.6c0.2,0.2 0.3,0.3 0.5,0.5c0.2,0.2 0.4,0.2 0.6,0.3c0.2,0.1 0.5,0.2 0.7,0.2c0.5,0.1 0.9,0.1 1.3,0.2c0.7,0.1 1.3,0 1.3,0z" fill="#99918a"/><path d="M192.36631,78c0,0 0.2,-0.1 0.5,-0.3c0.3,-0.2 0.7,-0.5 1.2,-0.8c0.5,-0.3 1.1,-0.7 1.8,-1c0.3,-0.2 0.7,-0.4 1.1,-0.5c0.4,-0.1 0.8,-0.3 1.1,-0.4c0.4,-0.1 0.8,-0.2 1.2,-0.3c0.4,-0.1 0.8,-0.2 1.2,-0.2c0.4,0 0.8,-0.1 1.1,-0.1c0.4,0 0.7,0.1 1,0.1c0.6,0.1 1.1,0.3 1.4,0.5c0.3,0.2 0.4,0.4 0.4,0.4c0,0 -0.2,-0.1 -0.5,-0.3c-0.3,-0.1 -0.8,-0.2 -1.4,-0.3c-0.3,0 -0.6,0 -1,0c-0.3,0 -0.7,0.1 -1.1,0.1c-0.4,0 -0.7,0.2 -1.1,0.3c-0.4,0.1 -0.8,0.2 -1.1,0.3c-0.8,0.3 -1.5,0.5 -2.2,0.8c-0.7,0.3 -1.3,0.6 -1.9,0.8c-0.9,0.6 -1.7,0.9 -1.7,0.9z" fill="#99918a"/><path d="M179.96631,122.9c0,0 0.1,0 0.3,0c0.2,0 0.5,0 0.8,-0.1c0.3,0 0.7,-0.1 1.1,-0.3c0.2,-0.1 0.4,-0.2 0.5,-0.3c0.2,-0.1 0.3,-0.3 0.5,-0.4c0.1,-0.2 0.3,-0.3 0.4,-0.5c0.1,-0.2 0.3,-0.3 0.4,-0.5c0.1,-0.2 0.2,-0.4 0.3,-0.5c0.1,-0.2 0.2,-0.3 0.2,-0.5c0.2,-0.3 0.2,-0.6 0.3,-0.8c0.1,-0.2 0.1,-0.3 0.1,-0.3c0,0 0,0.1 0,0.3c0,0.2 0,0.5 -0.1,0.9c-0.1,0.4 -0.2,0.8 -0.4,1.2c-0.1,0.2 -0.2,0.4 -0.4,0.6c-0.1,0.2 -0.3,0.4 -0.5,0.6c-0.2,0.2 -0.4,0.3 -0.6,0.4c-0.2,0.1 -0.4,0.2 -0.7,0.3c-0.2,0.1 -0.5,0.1 -0.7,0.1c-0.2,0 -0.4,0 -0.6,0c-0.4,0 -0.7,-0.1 -0.9,-0.2c0.1,0 0,0 0,0z" fill="#99918a"/><path d="M181.86631,106.1c0,0 0.1,0.4 0.2,0.9c0.1,0.3 0.1,0.6 0.2,0.9c0.1,0.3 0.2,0.6 0.4,1c0.1,0.2 0.2,0.3 0.2,0.4c0.1,0.1 0.2,0.3 0.3,0.4c0.1,0.1 0.2,0.2 0.3,0.3c0.1,0.1 0.2,0.2 0.3,0.2c0.1,0.1 0.2,0.1 0.3,0.2c0.1,0 0.2,0.1 0.3,0.1c0.2,0.1 0.2,0.1 0.2,0.1c0,0 -0.1,0 -0.3,0c-0.2,0 -0.4,0 -0.7,-0.1c-0.2,0 -0.3,-0.1 -0.5,-0.2c-0.2,-0.1 -0.3,-0.2 -0.5,-0.3c-0.3,-0.2 -0.5,-0.6 -0.7,-0.9c-0.4,-0.7 -0.4,-1.5 -0.4,-2.1c0.2,-0.5 0.4,-0.9 0.4,-0.9z" fill="#99918a"/><path d="M181.56631,134.4c0,0 0.7,-0.1 1.8,-0.3c0.5,-0.1 1.1,-0.3 1.7,-0.6c0.3,-0.1 0.6,-0.3 0.9,-0.5c0.3,-0.2 0.6,-0.4 0.8,-0.6c0.1,-0.1 0.2,-0.2 0.4,-0.4c0.1,-0.1 0.2,-0.3 0.3,-0.4l0.3,-0.4c0.1,-0.2 0.1,-0.3 0.2,-0.5c0.1,-0.1 0.1,-0.3 0.2,-0.5c0,-0.1 0.1,-0.3 0.1,-0.4c0,-0.3 0,-0.6 0,-0.9c0,-0.5 -0.1,-1 -0.1,-1.3c-0.1,-0.3 -0.1,-0.5 -0.1,-0.5c0,0 0.4,0.7 0.6,1.8c0.1,0.3 0.1,0.6 0.1,0.9c0,0.2 0,0.3 0,0.5c0,0.2 -0.1,0.3 -0.1,0.5c-0.1,0.2 -0.1,0.4 -0.2,0.5c-0.1,0.2 -0.2,0.3 -0.3,0.5c-0.1,0.2 -0.2,0.3 -0.3,0.5c-0.1,0.2 -0.2,0.3 -0.4,0.4c-0.3,0.3 -0.6,0.5 -0.9,0.7c-0.3,0.2 -0.7,0.3 -1,0.5c-0.7,0.2 -1.3,0.4 -1.9,0.4c-1.4,0.2 -2.1,0.1 -2.1,0.1z" fill="#99918a"/><path d="M181.06631,137.3c0,0 0.5,0.1 1.3,0.1c0.8,0 1.8,0 2.7,-0.3c0.5,-0.1 0.9,-0.3 1.4,-0.5c0.2,-0.1 0.4,-0.2 0.6,-0.3c0.2,-0.1 0.4,-0.2 0.5,-0.3c0.2,-0.1 0.3,-0.2 0.4,-0.3c0.1,-0.1 0.2,-0.2 0.3,-0.3c0.2,-0.1 0.3,-0.2 0.3,-0.2c0,0 -0.1,0.1 -0.2,0.3c-0.1,0.2 -0.3,0.5 -0.6,0.8c-0.1,0.1 -0.3,0.3 -0.5,0.4c-0.2,0.1 -0.4,0.3 -0.6,0.4c-0.2,0.1 -0.4,0.3 -0.7,0.4c-0.3,0.1 -0.5,0.2 -0.8,0.3c-0.3,0.1 -0.5,0.1 -0.8,0.2c-0.3,0.1 -0.5,0 -0.8,0.1c-0.5,0 -1,-0.1 -1.4,-0.2c-0.6,-0.3 -1.1,-0.6 -1.1,-0.6z" fill="#99918a"/><path d="M184.66631,150.1c0,0 0.2,-0.3 0.5,-0.7c0.3,-0.4 0.6,-1 0.9,-1.6c0.3,-0.6 0.4,-1.2 0.5,-1.7c0.1,-0.5 0.1,-0.9 0.1,-0.9c0,0 0,0.1 0.1,0.2c0,0.1 0.1,0.4 0.2,0.6c0,0.3 0,0.6 0,0.9c0,0.3 -0.1,0.7 -0.3,1c-0.3,0.7 -0.8,1.2 -1.2,1.6c-0.4,0.4 -0.8,0.6 -0.8,0.6z" fill="#99918a"/><path d="M189.26631,147c0,0 -0.1,0.6 -0.2,1.4c0,0.4 0,0.9 0,1.4c0.1,0.5 0.1,1 0.3,1.5c0.1,0.3 0.2,0.5 0.3,0.7c0.1,0.2 0.3,0.4 0.4,0.7c0.1,0.2 0.3,0.4 0.4,0.6c0.1,0.2 0.3,0.3 0.4,0.5c0.1,0.1 0.3,0.3 0.4,0.4c0.1,0.1 0.2,0.2 0.3,0.3c0.2,0.2 0.3,0.3 0.3,0.3c0,0 -0.1,0 -0.4,-0.2c-0.2,-0.1 -0.6,-0.2 -0.9,-0.5c-0.2,-0.1 -0.4,-0.2 -0.6,-0.4c-0.2,-0.2 -0.4,-0.3 -0.5,-0.6c-0.1,-0.2 -0.4,-0.4 -0.5,-0.7c-0.1,-0.3 -0.3,-0.5 -0.3,-0.8c-0.1,-0.3 -0.1,-0.6 -0.2,-0.9c0,-0.3 0,-0.6 -0.1,-0.8c0,-0.5 0.1,-1.1 0.2,-1.5c0.3,-0.9 0.7,-1.4 0.7,-1.4z" fill="#99918a"/><path d="M197.56631,161.7c0,0 0.1,0 0.3,-0.1c0.1,0 0.2,-0.1 0.3,-0.2c0.1,-0.1 0.2,-0.2 0.3,-0.4c0.1,-0.2 0.2,-0.3 0.2,-0.5c0.1,-0.2 0.1,-0.4 0.1,-0.6c0,-0.4 0,-0.9 0,-1.4c0,-0.5 -0.1,-0.9 -0.2,-1.4c-0.1,-0.4 -0.2,-0.9 -0.3,-1.2c-0.2,-0.7 -0.2,-1.2 -0.2,-1.2c0,0 0.3,0.4 0.6,1.1c0.1,0.3 0.3,0.8 0.5,1.2c0.1,0.5 0.2,0.9 0.3,1.5c0,0.3 0,0.5 0,0.8c0,0.3 0,0.5 -0.1,0.8c-0.1,0.2 -0.1,0.5 -0.2,0.7c-0.1,0.2 -0.2,0.4 -0.4,0.5c-0.1,0.1 -0.3,0.3 -0.4,0.3c-0.1,0.1 -0.3,0.1 -0.4,0.1c-0.3,0 -0.4,0 -0.4,0z" fill="#99918a"/><path d="M199.06631,158.6c0,0 0.1,0.1 0.2,0.4c0.1,0.2 0.3,0.6 0.6,0.9c0.1,0.2 0.3,0.4 0.4,0.6c0.2,0.2 0.4,0.4 0.5,0.6c0.2,0.2 0.4,0.4 0.7,0.5c0.2,0.2 0.5,0.3 0.7,0.4c0.2,0.2 0.5,0.2 0.8,0.3c0.3,0.1 0.6,0.1 0.8,0.2c0.3,0 0.5,0.1 0.8,0.1c0.3,0 0.5,0 0.7,0c0.5,0 0.8,-0.1 1.1,-0.1c0.3,0 0.4,0 0.4,0c0,0 -0.1,0.1 -0.4,0.2c-0.3,0.1 -0.6,0.3 -1.1,0.3c-0.2,0 -0.5,0.1 -0.8,0.1c-0.3,0 -0.6,0 -0.9,0c-0.3,-0.1 -0.6,-0.1 -0.9,-0.2c-0.3,-0.1 -0.6,-0.2 -0.9,-0.4c-0.3,-0.1 -0.6,-0.3 -0.8,-0.5c-0.3,-0.2 -0.5,-0.4 -0.7,-0.6c-0.2,-0.2 -0.4,-0.5 -0.5,-0.7c-0.2,-0.2 -0.3,-0.5 -0.4,-0.7c-0.2,-0.8 -0.3,-1.4 -0.3,-1.4z" fill="#99918a"/><path d="M208.66631,163.3c0,0 0.2,0.1 0.5,0.2c0.3,0.1 0.7,0.2 1.3,0.4c0.5,0.1 1.1,0.2 1.8,0.1c0.2,0 0.3,0 0.5,-0.1c0.2,0 0.3,-0.1 0.5,-0.1c0.3,-0.1 0.6,-0.3 0.9,-0.4l0.4,-0.3c0.1,-0.1 0.2,-0.2 0.3,-0.4c0.2,-0.2 0.4,-0.5 0.6,-0.8c0.3,-0.6 0.5,-1.1 0.6,-1.6c0,-0.5 -0.2,-0.9 -0.4,-1.1c-0.2,-0.2 -0.4,-0.3 -0.4,-0.3c0,0 0.2,0 0.5,0.2c0.3,0.2 0.6,0.6 0.7,1.2c0.1,0.6 -0.1,1.3 -0.4,1.9c-0.2,0.3 -0.3,0.7 -0.6,0.9c-0.1,0.1 -0.2,0.3 -0.4,0.4l-0.5,0.4c-0.3,0.2 -0.7,0.4 -1.1,0.5c-0.2,0.1 -0.4,0.1 -0.6,0.1c-0.2,0 -0.4,0 -0.6,0c-0.4,0 -0.7,0 -1,-0.1c-0.3,-0.1 -0.6,-0.2 -0.9,-0.2c-1.1,-0.4 -1.7,-0.9 -1.7,-0.9z" fill="#99918a"/><path d="M208.26631,156.5c0,0 0.1,0 0.3,-0.1c0.2,0 0.5,-0.1 0.8,-0.3c0.3,-0.1 0.7,-0.3 1,-0.6c0.2,-0.1 0.3,-0.3 0.5,-0.5c0.2,-0.2 0.3,-0.4 0.4,-0.5c0.1,-0.2 0.2,-0.4 0.3,-0.6c0.1,-0.2 0.2,-0.4 0.2,-0.6c0,-0.2 0.1,-0.4 0.1,-0.6c0,-0.2 0.1,-0.4 0.1,-0.6c0.1,-0.4 0.1,-0.7 0.1,-0.9c0,-0.2 0,-0.3 0,-0.3c0,0 0,0.1 0.1,0.3c0,0.2 0.2,0.5 0.2,0.9c0,0.4 0,0.8 0,1.3c0,0.2 -0.1,0.5 -0.2,0.7c-0.1,0.3 -0.2,0.5 -0.3,0.7c-0.2,0.2 -0.3,0.4 -0.5,0.6c-0.2,0.2 -0.4,0.4 -0.6,0.5c-0.2,0.1 -0.4,0.2 -0.6,0.3c-0.2,0.1 -0.4,0.1 -0.6,0.2c-0.4,0.1 -0.7,0.1 -0.9,0.1c-0.3,0 -0.4,0 -0.4,0z" fill="#99918a"/><path d="M218.86631,145.1c0,0 -0.1,0 -0.3,0c-0.2,0 -0.4,-0.1 -0.7,-0.2c-0.1,-0.1 -0.3,-0.2 -0.4,-0.3c-0.1,-0.1 -0.3,-0.3 -0.4,-0.4c-0.1,-0.2 -0.2,-0.3 -0.3,-0.5c-0.1,-0.2 -0.1,-0.4 -0.2,-0.6c-0.1,-0.2 -0.1,-0.4 -0.1,-0.6c0,-0.2 0,-0.4 0,-0.6c0,-0.4 0.1,-0.7 0.1,-1c0.1,-0.6 0.3,-0.9 0.3,-0.9c0,0 0.1,0.4 0.1,1c0.1,0.6 0.1,1.3 0.3,2c0,0.2 0.1,0.4 0.1,0.5c0.1,0.2 0.1,0.3 0.2,0.5c0.1,0.3 0.3,0.5 0.5,0.7c0.4,0.3 0.8,0.4 0.8,0.4z" fill="#99918a"/><path d="M192.96631,154.1c0,0 -0.2,-0.4 -0.5,-1c-0.3,-0.6 -0.5,-1.5 -0.6,-2.5c0,-0.5 0,-0.9 0,-1.4c0.1,-0.4 0.2,-0.8 0.3,-1.2c0.1,-0.3 0.3,-0.6 0.4,-0.8c0.1,-0.2 0.2,-0.3 0.2,-0.3c0,0 0,0.1 -0.1,0.3c-0.1,0.2 -0.1,0.5 -0.2,0.8c0,0.2 0,0.3 -0.1,0.5c0,0.2 0,0.4 0,0.6c0,0.4 0,0.9 0.1,1.3c0.1,0.9 0.2,1.8 0.3,2.4c0.1,0.8 0.2,1.3 0.2,1.3z" fill="#99918a"/></g><g><path d="M207.60685,99.58544c-0.55202,-0.01695 -0.97067,-0.97043 -0.93507,-2.12964c0.0356,-1.15922 0.51196,-2.08521 1.06398,-2.06826c0.55202,0.01695 0.97067,0.97043 0.93507,2.12964c-0.0356,1.15922 -0.51196,2.08521 -1.06398,2.06826z" id="Oval" fill="#592f25"/><path d="M194.4715,99.18906c-0.55202,-0.01695 -0.97067,-0.97043 -0.93507,-2.12964c0.0356,-1.15922 0.51196,-2.08521 1.06398,-2.06826c0.55202,0.01695 0.97067,0.97043 0.93507,2.12964c-0.0356,1.15922 -0.51196,2.08521 -1.06398,2.06826z" id="Oval" fill="#592f25"/><path d="M203.26631,94.8c-0.5,-1.1 0.8,-2.5 2.9,-2.3l-0.9,0.6c0,0 2.6,-0.5 4.6,0.3l-1.1,0.3c0,0 3.3,-0.4 4.3,2l-1.5,-0.3c0,0 1,0.7 1.1,1.6c0,0 -0.9,-1.2 -2.7,-1.2c-1.9,0.2 -6.2,-0.1 -6.7,-1z" id="Shape" fill="#c8bdb4"/><path d="M192.46631,95.4c-1.8,-0.3 -2.8,0.9 -2.8,0.9c0.3,-0.9 1.3,-1.5 1.3,-1.5l-1.6,0.1c1.2,-2.3 4.4,-1.6 4.4,-1.6l-1.1,-0.4c2.1,-0.6 4.6,0.1 4.6,0.1l-0.8,-0.7c2.2,0.1 3.3,1.5 2.7,2.6c-0.5,0.9 -4.9,0.7 -6.7,0.5z" id="Shape" fill="#c8bdb4"/><path d="M206.26631,99.1c0,0 0.2,-0.1 0.6,-0.1c0.4,0 0.8,0.1 1.3,0.2c0.5,0.1 0.9,0.4 1.2,0.6c0.3,0.2 0.4,0.4 0.4,0.4c0,0 -0.1,0 -0.2,0c-0.1,0 -0.3,0 -0.4,-0.1c-0.3,-0.1 -0.8,-0.2 -1.2,-0.3c-0.4,-0.1 -0.9,-0.3 -1.2,-0.5c-0.3,0 -0.5,-0.2 -0.5,-0.2z" id="Shape" fill="#a95947"/><path d="M192.86631,99.3c0,0 0.2,-0.1 0.5,-0.3c0.3,-0.2 0.7,-0.3 1.1,-0.4c0.4,-0.1 0.9,-0.1 1.2,0c0.3,0.1 0.6,0.2 0.6,0.2c0,0 -0.2,0.1 -0.5,0.2c-0.3,0.1 -0.7,0.2 -1.1,0.3c-0.4,0.1 -0.9,0.1 -1.2,0.1c-0.4,0 -0.6,-0.1 -0.6,-0.1z" id="Shape" fill="#a95947"/><g id="Shape"><path d="M200.06631,106.5c0,0 4.5,-1.2 7.2,2.1c0.7,0.8 1.7,1.9 2.2,1.9c0,0 -1.6,0.4 -2,-0.3c0,0 0.6,1.6 0.5,2.9c0,0 -0.7,-1.5 -1.2,-1.8c0,0 1.2,1.7 -0.3,2.7l-1.1,-2.2c0,0 0.2,1.7 -0.7,2.2c0,0 -1.2,-0.8 -0.9,-3c0,0 -1.1,2.5 -0.6,3c0,0 -2.4,-0.7 -2.1,-3c0,0 -0.1,2.1 -0.7,2.7c0,0 -0.2,-2.4 -0.7,-2.7c0,0 0.5,1.8 -0.2,2.5c0,0 -1.9,-0.7 -1.6,-2.5l-0.1,2.1c-1.4,-0.4 -1.5,-1.1 -1.5,-1.1c0,0.9 0,1.5 0,1.5c-2.2,-0.5 -1.8,-2.9 -1.8,-2.9c-0.5,0.7 -0.5,2.1 -0.5,2.1c-1.6,-1.2 -0.4,-3 -0.4,-3c-1.3,0.7 -2.4,-0.4 -2.4,-0.4c0,0 1,0.2 2.1,-1.5c1.1,-1.7 2.6,-1.3 2.6,-1.3" fill="#c8bdb4"/><path d="M191.16631,109.3c0,0 0.1,0 0.2,-0.1c0.1,-0.1 0.3,-0.2 0.5,-0.4c0.2,-0.2 0.4,-0.4 0.6,-0.6c0.2,-0.2 0.4,-0.5 0.6,-0.8c0.2,-0.3 0.5,-0.5 0.8,-0.7c0.3,-0.2 0.6,-0.3 0.9,-0.3c0.6,-0.1 0.9,0.1 0.9,0.1c0,0 -0.1,0 -0.2,0.1c-0.1,0 -0.3,0.1 -0.6,0.2c-0.4,0.2 -0.9,0.6 -1.3,1.1c-0.2,0.2 -0.4,0.5 -0.7,0.7c-0.2,0.2 -0.5,0.4 -0.8,0.5c-0.5,0.3 -0.9,0.2 -0.9,0.2z" fill="#99918a"/><path d="M194.46631,110.5c0,0 0,0.3 0.1,0.6c0.1,0.3 0.2,0.7 0.4,1.1c0.1,0.2 0.2,0.3 0.4,0.5c0.1,0.1 0.3,0.3 0.4,0.4c0.1,0.1 0.2,0.2 0.3,0.3c0.1,0.1 0.1,0.1 0.1,0.1c0,0 -0.1,0 -0.2,0c-0.1,0 -0.3,0 -0.5,-0.1c-0.2,0 -0.4,-0.1 -0.6,-0.3c-0.2,-0.1 -0.4,-0.3 -0.5,-0.6c-0.3,-0.5 -0.3,-1 -0.3,-1.4c0.2,-0.3 0.4,-0.6 0.4,-0.6z" fill="#99918a"/><path d="M203.16631,106.4c0,0 0.5,0 1.3,0.1c0.7,0.1 1.7,0.5 2.6,1.1c0.2,0.2 0.4,0.4 0.6,0.5c0.2,0.2 0.3,0.4 0.4,0.6c0.3,0.3 0.6,0.7 0.8,0.9c0.5,0.5 0.9,0.9 0.9,0.9c0,0 -0.5,-0.2 -1.1,-0.6c-0.3,-0.2 -0.7,-0.5 -1,-0.8c-0.3,-0.4 -0.6,-0.7 -1,-1c-0.7,-0.6 -1.6,-1 -2.3,-1.3c-0.7,-0.2 -1.2,-0.4 -1.2,-0.4z" fill="#99918a"/><path d="M205.56631,111.9c0,0 0.1,0.1 0.2,0.4c0.1,0.2 0.1,0.6 0,0.9c-0.1,0.3 -0.3,0.6 -0.6,0.8c-0.2,0.1 -0.4,0.1 -0.4,0.1c0,0 0.1,-0.2 0.1,-0.4c0.1,-0.2 0.1,-0.5 0.2,-0.7c0.1,-0.3 0.2,-0.5 0.2,-0.7c0.2,-0.3 0.3,-0.4 0.3,-0.4z" fill="#99918a"/><path d="M199.86631,111c0,0 0.1,0.1 0.2,0.4c0.1,0.2 0.2,0.6 0.2,0.9c0,0.3 -0.1,0.7 -0.3,0.9c-0.2,0.2 -0.4,0.3 -0.4,0.3v-0.1c0,-0.1 0,-0.2 0,-0.3c0,-0.2 0,-0.5 0,-0.8c0,-0.3 0,-0.6 0.1,-0.8c0.1,-0.3 0.2,-0.5 0.2,-0.5z" fill="#99918a"/><path d="M203.96631,111.1c0,0 0,0.2 0,0.5c0,0.3 -0.1,0.7 -0.2,1c-0.1,0.4 -0.2,0.7 -0.3,1c0,0.1 -0.1,0.3 -0.1,0.3c0,0.1 0,0.1 0,0.1c0,0 -0.2,0 -0.3,-0.4c-0.1,-0.3 -0.1,-0.7 0,-1.1c0.1,-0.4 0.3,-0.8 0.5,-1c0.2,-0.2 0.4,-0.4 0.4,-0.4z" fill="#99918a"/><path d="M201.16631,111.9c0,0 0.1,0.1 0.1,0.3c0,0.2 0.1,0.5 0,0.7c-0.1,0.3 -0.2,0.5 -0.4,0.7c-0.2,0.2 -0.3,0.2 -0.3,0.2c0,0 0,0 0,-0.1c0,-0.1 0,-0.1 0,-0.2c0,-0.2 0,-0.4 0.1,-0.7c0.1,-0.2 0.2,-0.5 0.3,-0.6c0.1,-0.2 0.2,-0.3 0.2,-0.3z" fill="#99918a"/><path d="M193.56631,109.7c0,0 0,0.2 0,0.5c0,0.3 -0.1,0.7 0,1c0,0.3 0.1,0.7 0.2,0.9c0.1,0.3 0.3,0.5 0.3,0.5c0,0 -0.2,0 -0.5,-0.2c-0.1,-0.1 -0.3,-0.3 -0.4,-0.5c-0.1,-0.2 -0.2,-0.4 -0.2,-0.7c0,-0.5 0.2,-0.9 0.3,-1.2c0.1,-0.2 0.3,-0.3 0.3,-0.3z" fill="#99918a"/><path d="M206.66631,114.1c0,0 0.1,-0.2 0.3,-0.4c0.1,-0.2 0.2,-0.5 0.2,-0.8c0,-0.3 0,-0.7 -0.1,-1c0,-0.3 0,-0.5 0,-0.5c0,0 0.2,0.1 0.4,0.4c0.2,0.2 0.4,0.6 0.4,1.1c0,0.1 0,0.2 0,0.3c0,0.1 -0.1,0.2 -0.1,0.3c-0.1,0.2 -0.3,0.3 -0.4,0.4c-0.5,0.3 -0.7,0.2 -0.7,0.2z" fill="#99918a"/><path d="M202.26631,107c0,0 0.2,-0.1 0.6,-0.1c0.4,0 0.9,0.1 1.3,0.4c0.2,0.1 0.4,0.3 0.6,0.5c0.2,0.2 0.3,0.4 0.3,0.5c0.2,0.3 0.2,0.6 0.2,0.6c0,0 -0.2,-0.2 -0.5,-0.4c-0.3,-0.2 -0.6,-0.5 -1,-0.7c-0.4,-0.2 -0.7,-0.4 -1,-0.6c-0.3,-0.1 -0.5,-0.2 -0.5,-0.2z" fill="#99918a"/><path d="M201.36631,107.2c0,0 0.1,-0.1 0.3,-0.1c0.2,0 0.4,0 0.6,0.2c0.2,0.1 0.3,0.4 0.4,0.5c0,0.2 0,0.3 0,0.3c0,0 -0.1,0 -0.3,-0.1c-0.2,-0.1 -0.3,-0.1 -0.5,-0.2c-0.1,-0.1 -0.3,-0.2 -0.4,-0.4c0,-0.1 -0.1,-0.2 -0.1,-0.2z" fill="#99918a"/><path d="M196.76631,106.9c0,0 -0.1,0.1 -0.3,0.3c-0.2,0.2 -0.4,0.4 -0.6,0.5c-0.2,0.2 -0.4,0.3 -0.6,0.5c-0.2,0.1 -0.3,0.2 -0.3,0.2c0,0 0,-0.2 0,-0.4c0.1,-0.2 0.2,-0.6 0.5,-0.8c0.3,-0.2 0.6,-0.4 0.8,-0.4c0.3,0.1 0.5,0.1 0.5,0.1z" fill="#99918a"/></g><g id="Shape"><path d="M203.06631,104.9c1.5,1.2 -0.6,2.8 -5.1,2.4c-4.5,-0.4 -1.1,-4 -1.1,-4c-0.2,-5.9 2.9,-6.6 3.9,-6.5c3.8,0.3 2.3,8.1 2.3,8.1z" fill="#c57761"/><path d="M199.26631,97c-0.5,0.3 -0.9,0.8 -1.2,1.2c-0.2,0.2 -0.3,0.5 -0.4,0.8c-0.1,0.3 -0.2,0.5 -0.3,0.8c-0.2,0.5 -0.2,1.1 -0.3,1.7c0,0.3 0,0.6 0,0.9v0.9v0.1l-0.1,0.1c-0.4,0.4 -0.8,1 -1.1,1.5c-0.1,0.3 -0.2,0.6 -0.1,0.8c0,0.3 0.2,0.5 0.4,0.7c0.2,0.2 0.5,0.3 0.8,0.4c0.3,0.1 0.6,0.2 0.9,0.2c0.6,0.1 1.3,0.2 2,0.2c-0.7,0.1 -1.3,0.1 -2,0.1c-0.7,0 -1.4,-0.2 -2,-0.6c-0.3,-0.2 -0.6,-0.5 -0.6,-0.9c-0.1,-0.4 0,-0.8 0.1,-1.1c0.3,-0.7 0.7,-1.2 1.2,-1.7l-0.1,0.2l-0.1,-0.9c0,-0.3 0,-0.6 0,-0.9c0.1,-0.6 0.2,-1.2 0.4,-1.8c0.1,-0.3 0.2,-0.6 0.4,-0.8c0.2,-0.3 0.3,-0.5 0.5,-0.8c0.2,-0.2 0.4,-0.4 0.7,-0.6c0.4,-0.2 0.7,-0.4 0.9,-0.5z" fill="#a95947"/><path d="M199.66631,103.5c0,0 -0.3,0 -0.6,0c-0.4,0 -0.8,-0.1 -1.2,-0.1c-0.2,0 -0.4,0 -0.6,0.1c-0.2,0 -0.4,0.1 -0.5,0.2c-0.2,0.1 -0.3,0.1 -0.4,0.2c-0.1,0 -0.2,0.1 -0.2,0.1c0,0 0.1,-0.2 0.3,-0.5c0.3,-0.3 0.8,-0.5 1.3,-0.6c0.5,0 1,0.2 1.4,0.3c0.4,0.1 0.5,0.3 0.5,0.3z" fill="#a95947"/></g><path d="M194.86631,89.6c0,0 0.9,-0.2 2.2,-0.2c0.7,0 1.5,0 2.3,0.2c0.4,0.1 0.9,0.3 1.3,0.4c0.4,0.2 0.8,0.3 1.2,0.3c0.8,0.1 1.7,-0.1 2.5,-0.1c0.8,-0.1 1.6,-0.1 2.3,-0.1c1.4,0.1 2.2,0.3 2.2,0.3c0,0 -0.2,0 -0.6,0c-0.4,0 -0.9,0 -1.6,0.1c-0.7,0 -1.4,0.1 -2.3,0.3c-0.8,0.1 -1.7,0.3 -2.7,0.2c-0.5,-0.1 -1,-0.2 -1.4,-0.4c-0.4,-0.2 -0.8,-0.3 -1.2,-0.4c-0.8,-0.2 -1.5,-0.3 -2.2,-0.4c-0.7,-0.1 -1.2,-0.1 -1.6,-0.1c-0.2,0 -0.4,-0.1 -0.4,-0.1z" id="Shape" fill="#a95947"/><path d="M196.66631,87.9c0,0 0.7,-0.1 1.7,0c0.5,0 1.1,0.1 1.7,0.3c0.3,0.1 0.6,0.2 1,0.3c0.3,0.1 0.6,0.2 0.9,0.3c0.3,0.1 0.6,0.1 0.9,0.1c0.3,0 0.6,0 0.9,-0.1c0.6,-0.2 1.2,-0.3 1.7,-0.2c0.5,0 0.9,0.1 1.2,0.1c0.3,0.1 0.5,0.1 0.5,0.1c0,0 -0.2,0 -0.5,0c-0.3,0 -0.7,0.1 -1.2,0.1c-0.2,0 -0.5,0.1 -0.8,0.2c-0.3,0.1 -0.6,0.2 -0.9,0.3c-0.3,0.1 -0.7,0.2 -1,0.2c-0.4,0 -0.7,-0.1 -1.1,-0.2c-0.3,-0.1 -0.7,-0.2 -1,-0.3c-0.3,-0.1 -0.6,-0.2 -0.9,-0.3c-0.6,-0.2 -1.2,-0.3 -1.6,-0.4c-0.8,-0.4 -1.5,-0.5 -1.5,-0.5z" id="Shape" fill="#a95947"/></g></g><g id="Shape"><g><path d="M185.76631,84.1c0,0 7.5,-12.8 9.4,-15.6c1.9,-2.7 5.9,-4.7 7.3,-7c1.4,-2.3 4.9,-12.6 7.4,-15c2.5,-2.4 9.7,-7.1 10.6,-10.9c0,0 1.8,6.3 0.2,12c-1,3.6 -1,6.5 0.2,10.2c1.2,3.6 4,21.8 2.4,28.8c0,0 -17.2,-7.1 -37.5,-2.5z" fill="#264a6e"/><path d="M223.26631,85.7c0,0 0,-1.3 0.1,-3.2c0,-1.9 0,-4.5 -0.1,-7c-0.1,-2.5 -0.3,-5.1 -0.4,-7c-0.1,-0.9 -0.2,-1.7 -0.3,-2.3c-0.1,-0.6 -0.1,-0.9 -0.1,-0.9c0,0 0.1,0.3 0.2,0.9c0.2,0.5 0.3,1.3 0.5,2.3c0.2,0.9 0.3,2.1 0.5,3.2c0.1,1.2 0.2,2.5 0.3,3.7c0.2,2.6 0.2,5.1 0.1,7c0,1.9 -0.1,3.2 -0.1,3.2z" fill="#1a324a"/><path d="M198.66631,65c0,0 0.3,-0.4 0.9,-0.9c0.5,-0.5 1.3,-1.2 2,-1.8c0.8,-0.6 1.5,-1.2 2.1,-1.7c0.6,-0.4 1,-0.7 1,-0.7c0,0 -0.3,0.4 -0.8,1c-0.5,0.6 -1.2,1.2 -2,1.9c-0.8,0.6 -1.6,1.2 -2.2,1.6c-0.5,0.4 -1,0.6 -1,0.6z" fill="#1a324a"/><path d="M219.16631,53.6c0,0 0.3,0.4 0.7,1.1c0.4,0.7 0.8,1.6 1.1,2.5c0.3,1 0.6,1.9 0.6,2.7c0.1,0.8 0,1.3 0,1.3c0,0 0,-0.1 -0.1,-0.3c0,-0.2 -0.2,-0.5 -0.3,-0.9c-0.2,-0.7 -0.6,-1.6 -0.9,-2.6c-0.3,-0.9 -0.6,-1.9 -0.8,-2.6c-0.2,-0.7 -0.3,-1.2 -0.3,-1.2z" fill="#1a324a"/></g><g><path d="M190.06631,81.8c19,-4.7 25.1,0 27.2,1c2.1,1.1 31.6,14.6 31.6,14.6c-6.5,-2.8 -19,-8.3 -35.6,-10.8c-16.6,-2.5 -44.2,1.3 -49.8,3.7c0,0 7.6,-3.8 26.6,-8.5z" fill="#264a6e"/><path d="M210.06631,82.5c0,0 1.4,0 3.4,0.3c1,0.2 2.2,0.3 3.4,0.6c0.6,0.1 1.3,0.3 1.9,0.5c0.6,0.2 1.3,0.4 1.9,0.6c1.3,0.4 2.6,0.9 3.7,1.4c1.2,0.5 2.2,1 3.2,1.5c0.9,0.4 1.6,0.9 2.2,1.2c0.5,0.3 0.8,0.5 0.8,0.5c0,0 -0.3,-0.1 -0.9,-0.4c-0.3,-0.1 -0.6,-0.3 -1,-0.4c-0.4,-0.2 -0.8,-0.3 -1.3,-0.5c-0.5,-0.2 -1,-0.4 -1.5,-0.6c-0.5,-0.2 -1.1,-0.4 -1.7,-0.7c-1.2,-0.4 -2.4,-0.9 -3.7,-1.3c-2.6,-0.8 -5.2,-1.5 -7.1,-2c-1,-0.2 -1.8,-0.4 -2.4,-0.5c-0.6,-0.2 -0.9,-0.2 -0.9,-0.2z" fill="#1a324a"/><path d="M181.96631,83.9c0,0 1,-0.5 2.6,-1c0.8,-0.3 1.7,-0.5 2.7,-0.8c1,-0.2 2.1,-0.4 3.2,-0.6c1.1,-0.1 2.2,-0.2 3.3,-0.3c0.5,0 1,0 1.5,0c0.5,0 0.9,0 1.3,0c0.8,0 1.5,0.1 2,0.2c0.5,0.1 0.8,0.1 0.8,0.1c0,0 -0.3,0 -0.8,0c-0.5,0 -1.2,0 -2,0.1c-0.8,0 -1.8,0.1 -2.8,0.2c-1,0.1 -2.1,0.2 -3.2,0.4c-1.1,0.1 -2.2,0.3 -3.2,0.5c-1,0.2 -2,0.4 -2.8,0.6c-1.6,0.3 -2.6,0.6 -2.6,0.6z" fill="#1a324a"/></g></g></g></g></g></svg>